<svg xmlns="http://www.w3.org/2000/svg" xmlns:xlink="http://www.w3.org/1999/xlink" viewBox="0 0 689.88 170.54"><defs><style>.cls-1{isolation:isolate;}.cls-2{fill:#f9d129;}.cls-27,.cls-3,.cls-7{mix-blend-mode:multiply;}.cls-4{fill:url(#linear-gradient);}.cls-5{fill:#fff;}.cls-6{fill:#00702f;}.cls-7{fill:url(#New_Gradient_Swatch_2);}.cls-8{fill:url(#New_Gradient_Swatch_1);}.cls-9{fill:url(#New_Gradient_Swatch_1-2);}.cls-10{fill:url(#New_Gradient_Swatch_1-3);}.cls-11{fill:url(#New_Gradient_Swatch_1-4);}.cls-12{fill:url(#New_Gradient_Swatch_1-5);}.cls-13{fill:url(#New_Gradient_Swatch_1-6);}.cls-14{fill:url(#New_Gradient_Swatch_1-7);}.cls-15{fill:url(#New_Gradient_Swatch_1-8);}.cls-16{fill:url(#New_Gradient_Swatch_1-9);}.cls-17{fill:url(#linear-gradient-2);}.cls-18{fill:url(#linear-gradient-3);}.cls-19{fill:url(#linear-gradient-4);}.cls-20{fill:url(#linear-gradient-5);}.cls-21{fill:url(#linear-gradient-6);}.cls-22{fill:url(#linear-gradient-7);}.cls-23{fill:url(#linear-gradient-8);}.cls-24{fill:url(#linear-gradient-9);}.cls-25{fill:url(#linear-gradient-10);}.cls-26{fill:#16552d;}.cls-27{fill:url(#linear-gradient-11);}.cls-28{fill:#58585a;}.cls-29{fill:#15552d;}</style><linearGradient id="linear-gradient" x1="527.14" y1="120.96" x2="682.08" y2="49.58" gradientUnits="userSpaceOnUse"><stop offset="0.01" stop-color="#bd890f"/><stop offset="0.25" stop-color="#fff" stop-opacity="0"/><stop offset="0.3" stop-color="#f9f4e9" stop-opacity="0.09"/><stop offset="0.39" stop-color="#e9d8b0" stop-opacity="0.33"/><stop offset="0.51" stop-color="#d0ac55" stop-opacity="0.71"/><stop offset="0.6" stop-color="#bd890f"/><stop offset="0.94" stop-color="#f4ecd8" stop-opacity="0.42"/><stop offset="1" stop-color="#fff" stop-opacity="0.31"/></linearGradient><radialGradient id="New_Gradient_Swatch_2" cx="1310.94" cy="-3090.4" fx="1225.827030039424" fy="-3153.771759435487" r="200.31" gradientTransform="translate(80.11 1318.21) scale(0.4 0.4)" gradientUnits="userSpaceOnUse"><stop offset="0.04" stop-color="#fef4e7" stop-opacity="0"/><stop offset="0.16" stop-color="#f7eee0" stop-opacity="0.05"/><stop offset="0.33" stop-color="#e3dfce" stop-opacity="0.19"/><stop offset="0.53" stop-color="#c2c5b0" stop-opacity="0.41"/><stop offset="0.75" stop-color="#94a186" stop-opacity="0.73"/><stop offset="0.92" stop-color="#6c8261"/></radialGradient><linearGradient id="New_Gradient_Swatch_1" x1="641.21" y1="245.21" x2="683.17" y2="373.03" gradientUnits="userSpaceOnUse"><stop offset="0.01" stop-color="#f9d129"/><stop offset="0.36" stop-color="#f9d129" stop-opacity="0.3"/><stop offset="0.63" stop-color="#f9d129" stop-opacity="0.31"/><stop offset="0.74" stop-color="#f9d129" stop-opacity="0.5"/><stop offset="0.98" stop-color="#f9d129" stop-opacity="0.96"/><stop offset="1" stop-color="#f9d129"/></linearGradient><linearGradient id="New_Gradient_Swatch_1-2" x1="655.83" y1="240.42" x2="697.78" y2="368.23" xlink:href="#New_Gradient_Swatch_1"/><linearGradient id="New_Gradient_Swatch_1-3" x1="633.36" y1="247.79" x2="675.32" y2="375.61" xlink:href="#New_Gradient_Swatch_1"/><linearGradient id="New_Gradient_Swatch_1-4" x1="656.8" y1="240.1" x2="698.76" y2="367.92" xlink:href="#New_Gradient_Swatch_1"/><linearGradient id="New_Gradient_Swatch_1-5" x1="639.94" y1="245.63" x2="681.89" y2="373.45" xlink:href="#New_Gradient_Swatch_1"/><linearGradient id="New_Gradient_Swatch_1-6" x1="656.74" y1="240.12" x2="698.7" y2="367.94" xlink:href="#New_Gradient_Swatch_1"/><linearGradient id="New_Gradient_Swatch_1-7" x1="646.24" y1="243.56" x2="688.2" y2="371.38" xlink:href="#New_Gradient_Swatch_1"/><linearGradient id="New_Gradient_Swatch_1-8" x1="659.02" y1="239.37" x2="700.97" y2="367.19" xlink:href="#New_Gradient_Swatch_1"/><linearGradient id="New_Gradient_Swatch_1-9" x1="661.26" y1="238.64" x2="703.21" y2="366.45" xlink:href="#New_Gradient_Swatch_1"/><linearGradient id="linear-gradient-2" x1="630.5" y1="242.38" x2="718.31" y2="446.3" gradientUnits="userSpaceOnUse"><stop offset="0.01" stop-color="#bd890f"/><stop offset="0.13" stop-color="#ddc385" stop-opacity="0.51"/><stop offset="0.25" stop-color="#fff" stop-opacity="0"/><stop offset="0.3" stop-color="#f9f4e9" stop-opacity="0.09"/><stop offset="0.39" stop-color="#e9d8b0" stop-opacity="0.33"/><stop offset="0.51" stop-color="#d0ac55" stop-opacity="0.71"/><stop offset="0.6" stop-color="#bd890f"/><stop offset="0.94" stop-color="#f4ecd8" stop-opacity="0.42"/><stop offset="1" stop-color="#fff" stop-opacity="0.31"/></linearGradient><linearGradient id="linear-gradient-3" x1="644.95" y1="236.15" x2="732.76" y2="440.08" xlink:href="#linear-gradient-2"/><linearGradient id="linear-gradient-4" x1="623.97" y1="245.19" x2="711.78" y2="449.11" xlink:href="#linear-gradient-2"/><linearGradient id="linear-gradient-5" x1="649.81" y1="234.06" x2="737.63" y2="437.98" xlink:href="#linear-gradient-2"/><linearGradient id="linear-gradient-6" x1="631.48" y1="241.95" x2="719.3" y2="445.87" xlink:href="#linear-gradient-2"/><linearGradient id="linear-gradient-7" x1="647.18" y1="235.19" x2="734.99" y2="439.11" xlink:href="#linear-gradient-2"/><linearGradient id="linear-gradient-8" x1="638.63" y1="238.87" x2="726.44" y2="442.8" xlink:href="#linear-gradient-2"/><linearGradient id="linear-gradient-9" x1="650.56" y1="233.74" x2="738.37" y2="437.66" xlink:href="#linear-gradient-2"/><linearGradient id="linear-gradient-10" x1="655.61" y1="231.56" x2="743.43" y2="435.48" xlink:href="#linear-gradient-2"/><linearGradient id="linear-gradient-11" x1="69.55" y1="329.69" x2="558.83" y2="329.69" gradientUnits="userSpaceOnUse"><stop offset="0" stop-color="#fef4e7" stop-opacity="0"/><stop offset="0.11" stop-color="#f1debb" stop-opacity="0.2"/><stop offset="0.26" stop-color="#e1c587" stop-opacity="0.44"/><stop offset="0.42" stop-color="#d4af5c" stop-opacity="0.64"/><stop offset="0.57" stop-color="#ca9e3a" stop-opacity="0.8"/><stop offset="0.72" stop-color="#c39322" stop-opacity="0.91"/><stop offset="0.86" stop-color="#be8b14" stop-opacity="0.98"/><stop offset="1" stop-color="#bd890f"/></linearGradient></defs><title>01</title><g class="cls-1"><g id="CMYK"><circle class="cls-2" cx="604.61" cy="85.27" r="85.27"/><g class="cls-3"><circle class="cls-4" cx="604.61" cy="85.27" r="85.27"/></g><circle class="cls-5" cx="604.62" cy="85.27" r="80.34"/><circle class="cls-6" cx="604.62" cy="85.27" r="79.26"/><ellipse class="cls-7" cx="604.61" cy="85.27" rx="79.27" ry="79.26"/><path class="cls-5" d="M719,337.37c-.68-.39-4.42-1.85-10.31-1.85-8.3,0-21,2.59-37,14.26l-.07.05-.33-.25c-15.93-11.67-28.46-14.06-36.76-14.06-5.9,0-9.63,1.46-10.31,1.85-.2.11-.57.33-.48.68s.25.33.58.33a1.85,1.85,0,0,0,.3,0,24.37,24.37,0,0,1,6-.72c10.77,0,24.69,8.12,35.84,16.2-2.25,1.84-4.55,3.85-6.92,6.05-.33-.29-.45-.37-.76-.63a9.88,9.88,0,0,0-2.88-1.74,3,3,0,0,0-1.69-.14,2.23,2.23,0,0,0-1.66,2.5,2,2,0,0,0,1.7,1.91,1.83,1.83,0,0,0,1.66-.93c.43.35.83.69,1.2,1l.51.5L657,363c-.54.47-1.07.94-1.61,1.38a15.27,15.27,0,0,1-3.49,2.33,3.1,3.1,0,0,1-1.43.34,4.67,4.67,0,0,1-.79-.17l-.2-.05-.07,0a1.91,1.91,0,0,0-.51-.19l-.24,0a1.06,1.06,0,0,0-.95.56,2,2,0,0,0-.16,1.42,2.1,2.1,0,0,0,.51.89,4.62,4.62,0,0,0,3,1.61,6,6,0,0,0,.65,0,6.43,6.43,0,0,0,.66,0,9,9,0,0,0,2.84-.84,23.63,23.63,0,0,0,4.77-3l1.41-1.13c.46.45.94.9,1.43,1.33a6.47,6.47,0,0,0,2.2,1.4,2.39,2.39,0,0,0,.79.13l.31,0,.36-.06a2.05,2.05,0,0,0,1.53-1.75,2.36,2.36,0,0,0-.88-2.33A1.67,1.67,0,0,0,665,365a1.8,1.8,0,0,0-.23.26c-.37-.37-.72-.75-1.08-1.15,2.33-2.1,5.16-4.27,7.85-6.41,2.72,2.14,5.71,4.31,8,6.41-.36.4-.72.79-1.08,1.15a1.79,1.79,0,0,0-.23-.26,1.67,1.67,0,0,0-2.11-.24,2.36,2.36,0,0,0-.88,2.33,2.05,2.05,0,0,0,1.53,1.75l.36.06.31,0a2.39,2.39,0,0,0,.79-.13,6.47,6.47,0,0,0,2.2-1.4c.49-.44,1-.89,1.43-1.33l1.41,1.13a23.62,23.62,0,0,0,4.77,3,9,9,0,0,0,2.84.84,6.43,6.43,0,0,0,.66,0,6,6,0,0,0,.65,0,4.61,4.61,0,0,0,3-1.61,2.1,2.1,0,0,0,.51-.89,2,2,0,0,0-.16-1.42,1.06,1.06,0,0,0-.95-.56l-.24,0a1.91,1.91,0,0,0-.51.19l-.07,0-.2.05a4.67,4.67,0,0,1-.79.17,3.1,3.1,0,0,1-1.43-.34,15.26,15.26,0,0,1-3.49-2.33c-.54-.45-1.07-.91-1.61-1.38l-.69-.61.51-.5c.37-.35.78-.69,1.2-1a1.82,1.82,0,0,0,1.66.93,2,2,0,0,0,1.7-1.91,2.23,2.23,0,0,0-1.66-2.5,3,3,0,0,0-1.69.14,9.89,9.89,0,0,0-2.88,1.74c-.32.26-.43.34-.76.63-2.29-2.14-4.68-4.23-6.9-6.07,11.14-8.08,25-16.19,35.82-16.19a24.37,24.37,0,0,1,6,.72,1.85,1.85,0,0,0,.3,0c.33,0,.52-.11.58-.33S719.22,337.49,719,337.37Z" transform="translate(-67.28 -218.32)"/><path class="cls-5" d="M676.31,332.36a37.07,37.07,0,0,0-2.29,6c1.41-1.14,5.64-2,7.46-2.39,13-2.8,13.78-14.55,14.17-16.85-.34.66-1.26,2-9.19,2.4-4.15.19-11.05.7-14.63,7.51a19.44,19.44,0,0,1,1.48,4.19c4.45-10.62,15.44-9.17,17.31-9.56C688.76,324.51,680.8,324.9,676.31,332.36Z" transform="translate(-67.28 -218.32)"/><path class="cls-5" d="M671.43,344.81l2-1c-.48-20.84-11.76-22-17.22-22.27-7.94-.36-8.85-1.75-9.19-2.4.39,2.3,1.2,14.06,14.17,16.85,1.85.4,4.6.78,5.92,2-1.52-13.62-12.79-13.28-15.06-14.27,2.14.45,18.2-2.95,17.46,20.14Z" transform="translate(-67.28 -218.32)"/><path class="cls-5" d="M664.84,284.78c.24,4.11,2.9,7.45,6.47,7.45s6.42-3.34,6.47-7.45c.07-5.7-6.47-16.56-6.47-16.56S664.49,278.82,664.84,284.78Zm9.29,4.89a4.54,4.54,0,0,1-2.86,1c-2.76,0-5-2.58-5-5.76a14.73,14.73,0,0,1,1.15-4.34,8.85,8.85,0,0,0-.34,2.1c0,3.9,2.74,7.06,6.13,7.06A5.32,5.32,0,0,0,674.13,289.67Z" transform="translate(-67.28 -218.32)"/><path class="cls-5" d="M653.52,306.81c0,11.88,16.88,15.67,16.88,15.67V318.8c0-12.33-16.88-15.67-16.88-15.67Z" transform="translate(-67.28 -218.32)"/><path class="cls-5" d="M672.16,318.8v3.69S689,318.69,689,306.81v-3.69S672.16,306.47,672.16,318.8Z" transform="translate(-67.28 -218.32)"/><path class="cls-5" d="M657.78,293.45c0,9.66,12.84,12.74,12.84,12.74v-3c0-10-12.84-12.74-12.84-12.74Z" transform="translate(-67.28 -218.32)"/><path class="cls-5" d="M671.95,303.19v3s12.84-3.08,12.84-12.74v-3S671.95,293.17,671.95,303.19Z" transform="translate(-67.28 -218.32)"/><path class="cls-5" d="M626.39,272.88c11.15-11.2,18.32-13.19,27.24-14.59-9.13,5.8-17.67,19.28-15,28.77,4.83-10.07,13.25-19.91,21-23.5a17.67,17.67,0,0,0-.31,20.38c1-8.5,6.93-16.66,11.91-22.13,5,5.47,10.93,13.63,11.91,22.13a17.67,17.67,0,0,0-.3-20.38c7.76,3.59,16.19,13.43,21,23.5,2.66-9.49-5.87-23-15-28.77,8.92,1.4,16.08,3.39,27.24,14.59-3.68-15-16.64-20.18-27-22,11.4-1,13.66.18,23.73,4.35-10.93-10.75-18.6-12.68-29.55-11.64a14.5,14.5,0,0,1,6.43-3.25c-4.59-1.81-11.78-.86-14.58,1.82,0,0-.55-4.92-3.85-6.91v0l0,0,0,0v0c-3.3,2-3.85,6.91-3.85,6.91-2.8-2.68-10-3.63-14.58-1.82a14.49,14.49,0,0,1,6.43,3.25c-11-1-18.61.89-29.55,11.64,10.07-4.17,12.33-5.33,23.73-4.35C643,252.7,630.07,257.89,626.39,272.88Z" transform="translate(-67.28 -218.32)"/><path class="cls-8" d="M719,337.37c-.68-.39-4.42-1.85-10.31-1.85-8.3,0-21,2.59-37,14.26l-.07.05-.33-.25c-15.93-11.67-28.46-14.06-36.76-14.06-5.9,0-9.63,1.46-10.31,1.85-.2.11-.57.33-.48.68s.25.33.58.33a1.85,1.85,0,0,0,.3,0,24.37,24.37,0,0,1,6-.72c10.77,0,24.69,8.12,35.84,16.2-2.25,1.84-4.55,3.85-6.92,6.05-.33-.29-.45-.37-.76-.63a9.88,9.88,0,0,0-2.88-1.74,3,3,0,0,0-1.69-.14,2.23,2.23,0,0,0-1.66,2.5,2,2,0,0,0,1.7,1.91,1.83,1.83,0,0,0,1.66-.93c.43.35.83.69,1.2,1l.51.5L657,363c-.54.47-1.07.94-1.61,1.38a15.27,15.27,0,0,1-3.49,2.33,3.1,3.1,0,0,1-1.43.34,4.67,4.67,0,0,1-.79-.17l-.2-.05-.07,0a1.91,1.91,0,0,0-.51-.19l-.24,0a1.06,1.06,0,0,0-.95.56,2,2,0,0,0-.16,1.42,2.1,2.1,0,0,0,.51.89,4.62,4.62,0,0,0,3,1.61,6,6,0,0,0,.65,0,6.43,6.43,0,0,0,.66,0,9,9,0,0,0,2.84-.84,23.63,23.63,0,0,0,4.77-3l1.41-1.13c.46.45.94.9,1.43,1.33a6.47,6.47,0,0,0,2.2,1.4,2.39,2.39,0,0,0,.79.13l.31,0,.36-.06a2.05,2.05,0,0,0,1.53-1.75,2.36,2.36,0,0,0-.88-2.33A1.67,1.67,0,0,0,665,365a1.8,1.8,0,0,0-.23.26c-.37-.37-.72-.75-1.08-1.15,2.33-2.1,5.16-4.27,7.85-6.41,2.72,2.14,5.71,4.31,8,6.41-.36.4-.72.79-1.08,1.15a1.79,1.79,0,0,0-.23-.26,1.67,1.67,0,0,0-2.11-.24,2.36,2.36,0,0,0-.88,2.33,2.05,2.05,0,0,0,1.53,1.75l.36.06.31,0a2.39,2.39,0,0,0,.79-.13,6.47,6.47,0,0,0,2.2-1.4c.49-.44,1-.89,1.43-1.33l1.41,1.13a23.62,23.62,0,0,0,4.77,3,9,9,0,0,0,2.84.84,6.43,6.43,0,0,0,.66,0,6,6,0,0,0,.65,0,4.61,4.61,0,0,0,3-1.61,2.1,2.1,0,0,0,.51-.89,2,2,0,0,0-.16-1.42,1.06,1.06,0,0,0-.95-.56l-.24,0a1.91,1.91,0,0,0-.51.19l-.07,0-.2.05a4.67,4.67,0,0,1-.79.17,3.1,3.1,0,0,1-1.43-.34,15.26,15.26,0,0,1-3.49-2.33c-.54-.45-1.07-.91-1.61-1.38l-.69-.61.51-.5c.37-.35.78-.69,1.2-1a1.82,1.82,0,0,0,1.66.93,2,2,0,0,0,1.7-1.91,2.23,2.23,0,0,0-1.66-2.5,3,3,0,0,0-1.69.14,9.89,9.89,0,0,0-2.88,1.74c-.32.26-.43.34-.76.63-2.29-2.14-4.68-4.23-6.9-6.07,11.14-8.08,25-16.19,35.82-16.19a24.37,24.37,0,0,1,6,.72,1.85,1.85,0,0,0,.3,0c.33,0,.52-.11.58-.33S719.22,337.49,719,337.37Z" transform="translate(-67.28 -218.32)"/><path class="cls-9" d="M676.31,332.36a37.07,37.07,0,0,0-2.29,6c1.41-1.14,5.64-2,7.46-2.39,13-2.8,13.78-14.55,14.17-16.85-.34.66-1.26,2-9.19,2.4-4.15.19-11.05.7-14.63,7.51a19.44,19.44,0,0,1,1.48,4.19c4.45-10.62,15.44-9.17,17.31-9.56C688.76,324.51,680.8,324.9,676.31,332.36Z" transform="translate(-67.28 -218.32)"/><path class="cls-10" d="M671.43,344.81l2-1c-.48-20.84-11.76-22-17.22-22.27-7.94-.36-8.85-1.75-9.19-2.4.39,2.3,1.2,14.06,14.17,16.85,1.85.4,4.6.78,5.92,2-1.52-13.62-12.79-13.28-15.06-14.27,2.14.45,18.2-2.95,17.46,20.14Z" transform="translate(-67.28 -218.32)"/><path class="cls-11" d="M664.84,284.78c.24,4.11,2.9,7.45,6.47,7.45s6.42-3.34,6.47-7.45c.07-5.7-6.47-16.56-6.47-16.56S664.49,278.82,664.84,284.78Zm9.29,4.89a4.54,4.54,0,0,1-2.86,1c-2.76,0-5-2.58-5-5.76a14.73,14.73,0,0,1,1.15-4.34,8.85,8.85,0,0,0-.34,2.1c0,3.9,2.74,7.06,6.13,7.06A5.32,5.32,0,0,0,674.13,289.67Z" transform="translate(-67.28 -218.32)"/><path class="cls-12" d="M653.52,306.81c0,11.88,16.88,15.67,16.88,15.67V318.8c0-12.33-16.88-15.67-16.88-15.67Z" transform="translate(-67.28 -218.32)"/><path class="cls-13" d="M672.16,318.8v3.69S689,318.69,689,306.81v-3.69S672.16,306.47,672.16,318.8Z" transform="translate(-67.28 -218.32)"/><path class="cls-14" d="M657.78,293.45c0,9.66,12.84,12.74,12.84,12.74v-3c0-10-12.84-12.74-12.84-12.74Z" transform="translate(-67.28 -218.32)"/><path class="cls-15" d="M671.95,303.19v3s12.84-3.08,12.84-12.74v-3S671.95,293.17,671.95,303.19Z" transform="translate(-67.28 -218.32)"/><path class="cls-16" d="M626.39,272.88c11.15-11.2,18.32-13.19,27.24-14.59-9.13,5.8-17.67,19.28-15,28.77,4.83-10.07,13.25-19.91,21-23.5a17.67,17.67,0,0,0-.31,20.38c1-8.5,6.93-16.66,11.91-22.13,5,5.47,10.93,13.63,11.91,22.13a17.67,17.67,0,0,0-.3-20.38c7.76,3.59,16.19,13.43,21,23.5,2.66-9.49-5.87-23-15-28.77,8.92,1.4,16.08,3.39,27.24,14.59-3.68-15-16.64-20.18-27-22,11.4-1,13.66.18,23.73,4.35-10.93-10.75-18.6-12.68-29.55-11.64a14.5,14.5,0,0,1,6.43-3.25c-4.59-1.81-11.78-.86-14.58,1.82,0,0-.55-4.92-3.85-6.91v0l0,0,0,0v0c-3.3,2-3.85,6.91-3.85,6.91-2.8-2.68-10-3.63-14.58-1.82a14.49,14.49,0,0,1,6.43,3.25c-11-1-18.61.89-29.55,11.64,10.07-4.17,12.33-5.33,23.73-4.35C643,252.7,630.07,257.89,626.39,272.88Z" transform="translate(-67.28 -218.32)"/><path class="cls-17" d="M719,337.37c-.68-.39-4.42-1.85-10.31-1.85-8.3,0-21,2.59-37,14.26l-.07.05-.33-.25c-15.93-11.67-28.46-14.06-36.76-14.06-5.9,0-9.63,1.46-10.31,1.85-.2.11-.57.33-.48.68s.25.33.58.33a1.85,1.85,0,0,0,.3,0,24.37,24.37,0,0,1,6-.72c10.77,0,24.69,8.12,35.84,16.2-2.25,1.84-4.55,3.85-6.92,6.05-.33-.29-.45-.37-.76-.63a9.88,9.88,0,0,0-2.88-1.74,3,3,0,0,0-1.69-.14,2.23,2.23,0,0,0-1.66,2.5,2,2,0,0,0,1.7,1.91,1.83,1.83,0,0,0,1.66-.93c.43.35.83.69,1.2,1l.51.5L657,363c-.54.47-1.07.94-1.61,1.38a15.27,15.27,0,0,1-3.49,2.33,3.1,3.1,0,0,1-1.43.34,4.67,4.67,0,0,1-.79-.17l-.2-.05-.07,0a1.91,1.91,0,0,0-.51-.19l-.24,0a1.06,1.06,0,0,0-.95.56,2,2,0,0,0-.16,1.42,2.1,2.1,0,0,0,.51.89,4.62,4.62,0,0,0,3,1.61,6,6,0,0,0,.65,0,6.43,6.43,0,0,0,.66,0,9,9,0,0,0,2.84-.84,23.63,23.63,0,0,0,4.77-3l1.41-1.13c.46.45.94.9,1.43,1.33a6.47,6.47,0,0,0,2.2,1.4,2.39,2.39,0,0,0,.79.13l.31,0,.36-.06a2.05,2.05,0,0,0,1.53-1.75,2.36,2.36,0,0,0-.88-2.33A1.67,1.67,0,0,0,665,365a1.8,1.8,0,0,0-.23.26c-.37-.37-.72-.75-1.08-1.15,2.33-2.1,5.16-4.27,7.85-6.41,2.72,2.14,5.71,4.31,8,6.41-.36.4-.72.79-1.08,1.15a1.79,1.79,0,0,0-.23-.26,1.67,1.67,0,0,0-2.11-.24,2.36,2.36,0,0,0-.88,2.33,2.05,2.05,0,0,0,1.53,1.75l.36.06.31,0a2.39,2.39,0,0,0,.79-.13,6.47,6.47,0,0,0,2.2-1.4c.49-.44,1-.89,1.43-1.33l1.41,1.13a23.62,23.62,0,0,0,4.77,3,9,9,0,0,0,2.84.84,6.43,6.43,0,0,0,.66,0,6,6,0,0,0,.65,0,4.61,4.61,0,0,0,3-1.61,2.1,2.1,0,0,0,.51-.89,2,2,0,0,0-.16-1.42,1.06,1.06,0,0,0-.95-.56l-.24,0a1.91,1.91,0,0,0-.51.19l-.07,0-.2.05a4.67,4.67,0,0,1-.79.17,3.1,3.1,0,0,1-1.43-.34,15.26,15.26,0,0,1-3.49-2.33c-.54-.45-1.07-.91-1.61-1.38l-.69-.61.51-.5c.37-.35.78-.69,1.2-1a1.82,1.82,0,0,0,1.66.93,2,2,0,0,0,1.7-1.91,2.23,2.23,0,0,0-1.66-2.5,3,3,0,0,0-1.69.14,9.89,9.89,0,0,0-2.88,1.74c-.32.26-.43.34-.76.63-2.29-2.14-4.68-4.23-6.9-6.07,11.14-8.08,25-16.19,35.82-16.19a24.37,24.37,0,0,1,6,.72,1.85,1.85,0,0,0,.3,0c.33,0,.52-.11.58-.33S719.22,337.49,719,337.37Z" transform="translate(-67.28 -218.32)"/><path class="cls-18" d="M676.31,332.36a37.07,37.07,0,0,0-2.29,6c1.41-1.14,5.64-2,7.46-2.39,13-2.8,13.78-14.55,14.17-16.85-.34.66-1.26,2-9.19,2.4-4.15.19-11.05.7-14.63,7.51a19.44,19.44,0,0,1,1.48,4.19c4.45-10.62,15.44-9.17,17.31-9.56C688.76,324.51,680.8,324.9,676.31,332.36Z" transform="translate(-67.28 -218.32)"/><path class="cls-19" d="M671.43,344.81l2-1c-.48-20.84-11.76-22-17.22-22.27-7.94-.36-8.85-1.75-9.19-2.4.39,2.3,1.2,14.06,14.17,16.85,1.85.4,4.6.78,5.92,2-1.52-13.62-12.79-13.28-15.06-14.27,2.14.45,18.2-2.95,17.46,20.14Z" transform="translate(-67.28 -218.32)"/><path class="cls-20" d="M664.84,284.78c.24,4.11,2.9,7.45,6.47,7.45s6.42-3.34,6.47-7.45c.07-5.7-6.47-16.56-6.47-16.56S664.49,278.82,664.84,284.78Zm9.29,4.89a4.54,4.54,0,0,1-2.86,1c-2.76,0-5-2.58-5-5.76a14.73,14.73,0,0,1,1.15-4.34,8.85,8.85,0,0,0-.34,2.1c0,3.9,2.74,7.06,6.13,7.06A5.32,5.32,0,0,0,674.13,289.67Z" transform="translate(-67.28 -218.32)"/><path class="cls-21" d="M653.52,306.81c0,11.88,16.88,15.67,16.88,15.67V318.8c0-12.33-16.88-15.67-16.88-15.67Z" transform="translate(-67.28 -218.32)"/><path class="cls-22" d="M672.16,318.8v3.69S689,318.69,689,306.81v-3.69S672.16,306.47,672.16,318.8Z" transform="translate(-67.28 -218.32)"/><path class="cls-23" d="M657.78,293.45c0,9.66,12.84,12.74,12.84,12.74v-3c0-10-12.84-12.74-12.84-12.74Z" transform="translate(-67.28 -218.32)"/><path class="cls-24" d="M671.95,303.19v3s12.84-3.08,12.84-12.74v-3S671.95,293.17,671.95,303.19Z" transform="translate(-67.28 -218.32)"/><path class="cls-25" d="M626.39,272.88c11.15-11.2,18.32-13.19,27.24-14.59-9.13,5.8-17.67,19.28-15,28.77,4.83-10.07,13.25-19.91,21-23.5a17.67,17.67,0,0,0-.31,20.38c1-8.5,6.93-16.66,11.91-22.13,5,5.47,10.93,13.63,11.91,22.13a17.67,17.67,0,0,0-.3-20.38c7.76,3.59,16.19,13.43,21,23.5,2.66-9.49-5.87-23-15-28.77,8.92,1.4,16.08,3.39,27.24,14.59-3.68-15-16.64-20.18-27-22,11.4-1,13.66.18,23.73,4.35-10.93-10.75-18.6-12.68-29.55-11.64a14.5,14.5,0,0,1,6.43-3.25c-4.59-1.81-11.78-.86-14.58,1.82,0,0-.55-4.92-3.85-6.91v0l0,0,0,0v0c-3.3,2-3.85,6.91-3.85,6.91-2.8-2.68-10-3.63-14.58-1.82a14.49,14.49,0,0,1,6.43,3.25c-11-1-18.61.89-29.55,11.64,10.07-4.17,12.33-5.33,23.73-4.35C643,252.7,630.07,257.89,626.39,272.88Z" transform="translate(-67.28 -218.32)"/><path class="cls-26" d="M127.28,247.78a2.26,2.26,0,1,0-2.26-2.26A2.21,2.21,0,0,0,127.28,247.78Z" transform="translate(-67.28 -218.32)"/><path class="cls-26" d="M120.91,247.78a2.26,2.26,0,1,0,0-4.51,2.26,2.26,0,1,0,0,4.51Z" transform="translate(-67.28 -218.32)"/><path class="cls-26" d="M153.55,256.5a2.25,2.25,0,0,0,2.52,2.21,2.52,2.52,0,0,0,2.57-2.61c0-3-3.05-5-6.37-5A10.16,10.16,0,0,0,142,261.23a9.9,9.9,0,0,0,4.33,8.45H134.36c-2.08-.18-2.3-2.34-2.3-3.54V254.68a14.42,14.42,0,0,1,.31-3.23h-2.21c-.31.31-.22.49-.31.66a3.32,3.32,0,0,1-.49,1.11l-.75-.49a9.09,9.09,0,0,0-5.22-1.77c-5.57,0-9.07,5-9.07,10.08,0,5.48,3.49,10.26,8.14,10.26a6.74,6.74,0,0,0,6.41-4.6c0,4,2.48,4.56,5.48,4.6h17.51a8.7,8.7,0,0,0,6.41-2.48l-1.11-.75a6.51,6.51,0,0,1-4.51,1.59c-4.38,0-6.28-3.8-6.28-8.93,0-5.44,2.08-8.23,6-8.23,2.26,0,3.49.93,4.11,2.12a6,6,0,0,0-.88-.09A1.83,1.83,0,0,0,153.55,256.5Zm-25.74,9.33a5.22,5.22,0,0,1-4.78,4c-1.86,0-4.69-2-4.69-8.49,0-4.56,1.59-8.8,5-8.8,4.42,0,4.91,4.2,4.91,8A19.45,19.45,0,0,1,127.81,265.83Z" transform="translate(-67.28 -218.32)"/><path class="cls-26" d="M167.88,271.31V243.05l-5.79,1.11c1.86.62,1.9.93,1.9,1.95v25.21Z" transform="translate(-67.28 -218.32)"/><path class="cls-26" d="M181.72,251.59l-5.88,1.11c1.95.62,2,.93,2,2v11.23c-.35,8.31-3.54,11.46-10,13.18,1.64.13,2.61.18,3.18.18,9.91,0,10.66-8.76,10.66-16.67Z" transform="translate(-67.28 -218.32)"/><path class="cls-26" d="M192.07,248.09a2.31,2.31,0,0,0,2.3-2.3,2.3,2.3,0,0,0-4.6,0A2.31,2.31,0,0,0,192.07,248.09Z" transform="translate(-67.28 -218.32)"/><path class="cls-26" d="M204.45,246.1v19.33c0,2.61-1,4.25-3.49,4.25h-6.59a46.41,46.41,0,0,0,.44-7.08v-11L189,252.69c1.9.62,1.95.93,1.95,2v11.23c-.31,8.31-3.49,11.46-10,13.18,1.64.13,2.65.18,3.18.18,6.19,0,8.8-3.45,9.86-8h7.87c3.76,0,6.46-2,6.46-5.75V243.05l-5.84,1.11C204.45,244.78,204.45,245.09,204.45,246.1Z" transform="translate(-67.28 -218.32)"/><path class="cls-26" d="M214.23,246.1v25.21h3.89V243.05l-5.79,1.11C214.18,244.78,214.23,245.09,214.23,246.1Z" transform="translate(-67.28 -218.32)"/><path class="cls-26" d="M223,264.41a7.11,7.11,0,0,0,6.77,6.9H230a5.87,5.87,0,0,0,5.48-3.14c-.84,8.27-5.79,10-9.51,10.88l-1.06.18c1.59.13,3,.22,3.63.22,4.73,0,10.75-1.86,10.75-16.85V251.76H235.9C228.38,251.76,223,256.72,223,264.41Zm12.38-1.11c0,3.44-2,6.61-4.66,6.63s-3.87-3.19-3.87-5.79c0-6.59,4.16-11,8-11h.49Z" transform="translate(-67.28 -218.32)"/><path class="cls-26" d="M260.62,251c-5.88,0-9.33,5-9.33,10.22s3.45,10.13,9.33,10.13,9.33-5,9.33-10.13S266.46,251,260.62,251Zm0,18.84c-3.54,0-5.13-3.1-5.13-8.62s1.59-8.67,5.13-8.67,5.09,3.05,5.09,8.67S264.11,269.81,260.62,269.81Z" transform="translate(-67.28 -218.32)"/><path class="cls-26" d="M292.86,275.38a2.17,2.17,0,0,0-2.26,2.21,2.26,2.26,0,1,0,4.51,0A2.17,2.17,0,0,0,292.86,275.38Z" transform="translate(-67.28 -218.32)"/><path class="cls-26" d="M286.49,275.38a2.15,2.15,0,0,0-2.26,2.21,2.18,2.18,0,0,0,2.26,2.26,2.24,2.24,0,0,0,2.26-2.26A2.2,2.2,0,0,0,286.49,275.38Z" transform="translate(-67.28 -218.32)"/><path class="cls-26" d="M335.14,246.06v19.37c0,2.57-1,4.25-3.32,4.25h-3.41c-2,0-3.54-1.86-4.29-3.94a8.94,8.94,0,0,0,.13-1.59c0-4.07-2.88-9.47-8.23-9.47-6.5,0-7.61,4.07-8.67,8.18-.57,2.21-1.28,4.87-2.61,6.15a3.91,3.91,0,0,1-1.68.66h-3.49c-3.1,0-5-4-5-6.81V251.59l-5.84,1.11c1.77.62,1.95.8,1.95,1.77v11.1c0,2.57-1,4.11-3.32,4.11H284c-1.86-.13-2.92-1.37-2.92-3.72V243.14l-7.08.31v1.46c2.52,0,3.18.4,3.18,1.46v19.42c0,4.2,2.79,5.53,6.55,5.53h4.51c2.74,0,5.48-.8,6.55-3.45,1.37,2.08,3.27,3.45,5.53,3.45H303a5.7,5.7,0,0,0,4.64-1.86,8.41,8.41,0,0,0,7.21,3.76c4.29,0,7-2.17,8.32-4.87a6.91,6.91,0,0,0,6.1,3h3.23c3.76,0,6.46-2,6.46-5.75V243l-5.88,1.11C335.1,244.73,335.14,245,335.14,246.06ZM315,271.67c-2.74,0-4.73-2.26-5.88-3.67a.64.64,0,0,0-.22-.27,21.54,21.54,0,0,0,1.64-4.73l.09-.27c.88-3.45,1.77-6.63,4.6-6.63h.18c3.23.13,4.78,4.07,4.78,8.27C320.19,268.4,317.8,271.67,315,271.67Z" transform="translate(-67.28 -218.32)"/><path class="cls-26" d="M344.87,246.1v25.21h3.89V243.05L343,244.16C344.83,244.78,344.87,245.09,344.87,246.1Z" transform="translate(-67.28 -218.32)"/><path class="cls-26" d="M353.63,264.41a7.11,7.11,0,0,0,6.77,6.9h.22a5.87,5.87,0,0,0,5.48-3.14c-.84,8.27-5.79,10-9.51,10.88l-1.06.18c1.59.13,3,.22,3.63.22,4.73,0,10.75-1.86,10.75-16.85V251.76h-3.36C359,251.76,353.63,256.72,353.63,264.41ZM366,263.31c0,3.44-2,6.61-4.66,6.63s-3.87-3.19-3.87-5.79c0-6.59,4.16-11,8-11H366Z" transform="translate(-67.28 -218.32)"/><path class="cls-26" d="M388.57,247.78a2.26,2.26,0,1,0,0-4.51,2.26,2.26,0,1,0,0,4.51Z" transform="translate(-67.28 -218.32)"/><path class="cls-26" d="M394.93,247.78a2.26,2.26,0,1,0-2.26-2.26A2.21,2.21,0,0,0,394.93,247.78Z" transform="translate(-67.28 -218.32)"/><path class="cls-26" d="M416.47,245.48h-2.08c-1.64,0-2.74-2-2.74-3.36,0-.88.53-1.9,1.28-1.9a.89.89,0,0,1,.75.31,1.91,1.91,0,0,0-.66,1.06c0,.66.62,1.11,1.46,1.11s1.46-.27,1.46-1.28c0-1.33-1.28-2.34-2.92-2.34a3.46,3.46,0,0,0-3.67,3.58,4.14,4.14,0,0,0,1.68,2.83h-2l-.53,1.42h8Z" transform="translate(-67.28 -218.32)"/><path class="cls-26" d="M428.28,275.38a2.17,2.17,0,0,0-2.26,2.21,2.26,2.26,0,1,0,4.51,0A2.17,2.17,0,0,0,428.28,275.38Z" transform="translate(-67.28 -218.32)"/><path class="cls-26" d="M421.91,275.38a2.15,2.15,0,0,0-2.26,2.21,2.18,2.18,0,0,0,2.26,2.26,2.24,2.24,0,0,0,2.26-2.26A2.2,2.2,0,0,0,421.91,275.38Z" transform="translate(-67.28 -218.32)"/><path class="cls-26" d="M442.61,274.85a2.31,2.31,0,0,0-2.3,2.3,2.3,2.3,0,0,0,4.6,0A2.31,2.31,0,0,0,442.61,274.85Z" transform="translate(-67.28 -218.32)"/><path class="cls-26" d="M455.79,246.1v19.33c0,2.61-1,4.25-3.49,4.25h-1.41c-3.1,0-5-4-5-6.81V251.59l-5.84,1.11c1.77.62,1.95.8,1.95,1.77v11.1c0,2.57-1,4.11-3.32,4.11H435c-3.1,0-5-4-5-6.81V251.59l-5.84,1.11c1.77.62,1.95.8,1.95,1.77v11.1c0,2.57-1,4.11-3.32,4.11h-2.48c-3.1,0-5-4-5-6.81V251.59l-5.84,1.11c1.77.62,1.95.8,1.95,1.77v11.1c0,2.57-1,4.11-3.32,4.11H402c-2.08-.18-2.3-2.34-2.3-3.54V254.68a14.42,14.42,0,0,1,.31-3.23h-2.21c-.31.31-.22.49-.31.66a3.32,3.32,0,0,1-.49,1.11l-.75-.49A9.09,9.09,0,0,0,391,251c-5.57,0-9.07,5-9.07,10.08,0,5.48,3.49,10.26,8.14,10.26a6.74,6.74,0,0,0,6.41-4.6c0,4,2.48,4.56,5.48,4.6h7c2.74,0,5.48-.8,6.55-3.45a6.84,6.84,0,0,0,5.26,3.43v0h2.83c2.74,0,5.48-.8,6.55-3.45,1.37,2.08,3.27,3.45,5.53,3.45h3.8c2.74,0,5.48-.8,6.55-3.45a6.84,6.84,0,0,0,5.26,3.43v0h1.9c3.76,0,6.46-2,6.46-5.75V243.05l-5.84,1.11C455.79,244.78,455.79,245.09,455.79,246.1Zm-60.32,19.73a5.22,5.22,0,0,1-4.78,4c-1.86,0-4.69-2-4.69-8.49,0-4.56,1.59-8.8,5-8.8,4.42,0,4.91,4.2,4.91,8A19.45,19.45,0,0,1,395.47,265.83Z" transform="translate(-67.28 -218.32)"/><path class="cls-26" d="M465.56,246.1v25.21h3.89V243.05l-5.79,1.11C465.52,244.78,465.56,245.09,465.56,246.1Z" transform="translate(-67.28 -218.32)"/><path class="cls-26" d="M494.09,246.9a2.24,2.24,0,0,0,2.26-2.26,2.21,2.21,0,0,0-2.26-2.26,2.18,2.18,0,0,0-2.26,2.26A2.21,2.21,0,0,0,494.09,246.9Z" transform="translate(-67.28 -218.32)"/><path class="cls-26" d="M490.82,251c-5.88,0-9.33,5-9.33,10.22s3.45,10.13,9.33,10.13,9.33-5,9.33-10.13S496.65,251,490.82,251Zm0,18.84c-3.54,0-5.13-3.1-5.13-8.62s1.59-8.67,5.13-8.67,5.09,3.05,5.09,8.67S494.31,269.81,490.82,269.81Z" transform="translate(-67.28 -218.32)"/><path class="cls-26" d="M487.68,246.9a2.21,2.21,0,0,0,2.26-2.26,2.18,2.18,0,0,0-2.26-2.26,2.15,2.15,0,0,0-2.21,2.26A2.17,2.17,0,0,0,487.68,246.9Z" transform="translate(-67.28 -218.32)"/><path class="cls-26" d="M510.1,254.68v11.23c-.35,8.31-3.54,11.46-10,13.18,1.64.13,2.61.18,3.18.18,9.91,0,10.66-8.76,10.66-16.67v-11l-5.88,1.11C510.05,253.31,510.1,253.62,510.1,254.68Z" transform="translate(-67.28 -218.32)"/><path class="cls-26" d="M523.76,271.31V243.05L518,244.16c1.86.62,1.9.93,1.9,1.95v25.21Z" transform="translate(-67.28 -218.32)"/><path class="cls-26" d="M533.71,254.46V265.7c-.35,8.31-3.54,11.46-10,13.18,1.64.13,2.61.22,3.18.22,9.91,0,10.66-8.8,10.66-16.72v-11l-5.88,1.11C533.67,253.09,533.71,253.45,533.71,254.46Z" transform="translate(-67.28 -218.32)"/><path class="cls-26" d="M535.4,242.39a2.28,2.28,0,0,0-2.3,2.3,2.28,2.28,0,1,0,4.56,0A2.27,2.27,0,0,0,535.4,242.39Z" transform="translate(-67.28 -218.32)"/><path class="cls-26" d="M555.39,251.76c-7.52,0-12.92,5-12.92,12.65a7.11,7.11,0,0,0,6.77,6.9h.22a5.87,5.87,0,0,0,5.48-3.14c-.84,8.27-5.79,10-9.51,10.88l-1.06.18c1.59.13,3,.22,3.63.22,4.73,0,10.75-1.86,10.75-16.85V251.76Zm-.53,11.54c0,3.44-2,6.61-4.66,6.63s-3.87-3.19-3.87-5.79c0-6.59,4.16-11,8-11h.49Z" transform="translate(-67.28 -218.32)"/><path class="cls-2" d="M558.83,327.26H294.53c-124.25,0-225,1.08-225,2.42s100.73,2.42,225,2.42h264.3Z" transform="translate(-67.28 -218.32)"/><path class="cls-27" d="M558.83,327.26H294.53c-124.25,0-225,1.08-225,2.42s100.73,2.42,225,2.42h264.3Z" transform="translate(-67.28 -218.32)"/><path class="cls-28" d="M333.65,347.8a1.18,1.18,0,1,0,0-2.37,1.18,1.18,0,0,0,0,2.37Z" transform="translate(-67.28 -218.32)"/><path class="cls-28" d="M336.93,347.8a1.18,1.18,0,1,0-1.18-1.18A1.16,1.16,0,0,0,336.93,347.8Z" transform="translate(-67.28 -218.32)"/><path class="cls-28" d="M346.53,362a1.15,1.15,0,0,0-1.18,1.16,1.18,1.18,0,1,0,2.37,0A1.15,1.15,0,0,0,346.53,362Z" transform="translate(-67.28 -218.32)"/><path class="cls-28" d="M345.12,350.3l.09,0c1,.32,1,.48,1,1v5.53c0,1.41-.57,2.14-1.68,2.16h-4c-.76-.06-1.16-.69-1.16-1.8v-5.89a7.47,7.47,0,0,1,.16-1.66v0h-1.18a.43.43,0,0,0-.14.26.31.31,0,0,1,0,.09,2.45,2.45,0,0,1-.23.55l-.38-.24h0a4.7,4.7,0,0,0-2.69-.91c-2.93,0-4.69,2.65-4.69,5.21,0,2.92,1.89,5.3,4.21,5.3a3.49,3.49,0,0,0,3.28-2.27c.05,2.05,1.43,2.25,2.84,2.27h4.35c2,0,3.32-1.14,3.32-3v-7.22l-3,.57Zm-7.69,4a10,10,0,0,1-.25,2.75,2.66,2.66,0,0,1-2.43,2c-.89,0-2.39-.91-2.39-4.34a7.12,7.12,0,0,1,.63-3.13,2.17,2.17,0,0,1,1.94-1.37C337.13,350.24,337.43,352.3,337.43,354.31Z" transform="translate(-67.28 -218.32)"/><path class="cls-28" d="M343.26,362a1.17,1.17,0,1,0,0,2.34,1.17,1.17,0,0,0,1.18-1.18A1.16,1.16,0,0,0,343.26,362Z" transform="translate(-67.28 -218.32)"/><path class="cls-28" d="M355.66,349.74h0a2.77,2.77,0,0,0-2.09,1.12c-1,1.15-1.41,1.25-1.94,1.27h0L352,354l0,0c1.23-1.78,2.49-3.42,3.33-3.42,1.2,0,1.43,2.1,1.43,5.73V359h-6.65l.74.88H359v-.61C359,356.44,358.71,349.79,355.66,349.74Z" transform="translate(-67.28 -218.32)"/><path class="cls-28" d="M407.46,345.91l.09,0c1,.31,1,.47,1,1v9.94c0,1.43-.6,2.16-1.77,2.16h-.52v0H406c-1.27,0-2.21-1.34-2.48-2.66v-6.65l-3,.57-.09,0,.08,0c1,.31,1,.47,1,1v5.62c0,1.43-.6,2.16-1.77,2.16a1.67,1.67,0,0,1-.3,0h0a2.34,2.34,0,0,1-1.47-1.21,4.9,4.9,0,0,1-.64-2.33v-5l-3.14.59.08,0c1,.34,1,.43,1,.89v4.89c0,1.43-.6,2.16-1.8,2.16S391.19,357.5,391,356v-4.62l-3,.55-.09,0,.08,0c1,.34,1,.41,1,.91v4c0,1.43-.59,2.16-1.75,2.16h-6a1.82,1.82,0,0,1-1.3-.36c2.05-1.11,3.94-2.41,4.19-4.3h0a3.08,3.08,0,0,0,0-.4c0-2.46-1.9-4-4.84-4a10.67,10.67,0,0,0-5.18,1.71,1.76,1.76,0,0,0-.23.16l-.07.05,0,0,0,0c.06.06.22.28.38.5l.09.13.09.12a18.51,18.51,0,0,1,1.45,2.11,16,16,0,0,0,2.28,3.85A6.19,6.19,0,0,1,376,359h-6.23a32.33,32.33,0,0,0,.16-3.62v-5.6h-1.75a6.74,6.74,0,0,0-4.79,1.77,6.4,6.4,0,0,0-1.88,4.75,3.49,3.49,0,0,0,1.18,2.61,3.61,3.61,0,0,0,2.33,1h2.59a5.39,5.39,0,0,1-4.55,3.94l-.73.12.18,0c.84.07,1.56.11,1.87.11a5.37,5.37,0,0,0,2.93-.73c.1-.06.19-.15.28-.23l.13-.11a4.4,4.4,0,0,0,.54-.53l.1-.13a5.31,5.31,0,0,0,.49-.73l0-.07a7.41,7.41,0,0,0,.67-1.67h7a4.48,4.48,0,0,0,2.42-.58h0a4,4,0,0,0,2.58.57h6.12a3.24,3.24,0,0,0,3.07-1.53,3.54,3.54,0,0,0,3.16,1.55,3.32,3.32,0,0,0,3.14-1.89,3.32,3.32,0,0,0,3.09,1.89,3.11,3.11,0,0,0,3.17-1.92,3.5,3.5,0,0,0,3,1.92h.3v0h.62c2.06,0,3.34-1.14,3.34-3V345.32l-3,.57Zm-25.57,7.94c0,2.17-1.1,3-2.66,4a15.69,15.69,0,0,1-1.74-2.94,12.83,12.83,0,0,0-1.81-3,7.71,7.71,0,0,1,3.67-1.05,2.33,2.33,0,0,1,1.89.83A3.35,3.35,0,0,1,381.89,353.86Zm-14-3.3v7.78a5.45,5.45,0,0,1,0,.62V359h-2.32c-1.24,0-2-1.43-2-2.82,0-3.37,2.13-5.64,4.12-5.64Z" transform="translate(-67.28 -218.32)"/><path class="cls-28" d="M412.52,345.91l.08,0c1,.32,1,.49,1,1v13h2V345.32l-3,.57Z" transform="translate(-67.28 -218.32)"/><path class="cls-28" d="M428.46,347.8a1.18,1.18,0,1,0-1.18-1.18A1.16,1.16,0,0,0,428.46,347.8Z" transform="translate(-67.28 -218.32)"/><path class="cls-28" d="M425.19,347.8a1.18,1.18,0,0,0,0-2.37,1.18,1.18,0,0,0,0,2.37Z" transform="translate(-67.28 -218.32)"/><path class="cls-28" d="M434.81,362a1.17,1.17,0,1,0,0,2.34,1.17,1.17,0,0,0,1.18-1.18A1.16,1.16,0,0,0,434.81,362Z" transform="translate(-67.28 -218.32)"/><path class="cls-28" d="M438.09,362a1.15,1.15,0,0,0-1.18,1.16,1.18,1.18,0,1,0,2.37,0A1.15,1.15,0,0,0,438.09,362Z" transform="translate(-67.28 -218.32)"/><path class="cls-28" d="M447.3,349.71l-3,.57-.09,0,.09,0c1,.32,1,.48,1,1v5.53c0,1.41-.57,2.14-1.68,2.16h-2a2.24,2.24,0,0,1-1.85-1.2,4.53,4.53,0,0,1-.67-2.28v-5.83l-3,.57-.08,0,.08,0c.92.32,1,.41,1,.89v5.71c0,1.39-.57,2.09-1.68,2.09H432.1c-.76-.06-1.16-.69-1.16-1.8v-5.89a7.47,7.47,0,0,1,.16-1.66v0h-1.18a.43.43,0,0,0-.14.26.31.31,0,0,1,0,.09,2.45,2.45,0,0,1-.23.55l-.38-.24h0a4.7,4.7,0,0,0-2.69-.91c-2.93,0-4.69,2.65-4.69,5.21,0,2.92,1.89,5.3,4.21,5.3a3.49,3.49,0,0,0,3.28-2.27c.05,2.05,1.43,2.25,2.84,2.27h3.6c1.21,0,2.77-.3,3.37-1.75a3.48,3.48,0,0,0,2.84,1.75H444c2,0,3.32-1.14,3.32-3ZM429,354.31a10,10,0,0,1-.25,2.75,2.66,2.66,0,0,1-2.43,2c-.89,0-2.39-.91-2.39-4.34a7.12,7.12,0,0,1,.63-3.13,2.17,2.17,0,0,1,1.94-1.37C428.67,350.24,429,352.3,429,354.31Z" transform="translate(-67.28 -218.32)"/><path class="cls-28" d="M444.57,361.91a1.2,1.2,0,1,0,1.21,1.21A1.19,1.19,0,0,0,444.57,361.91Z" transform="translate(-67.28 -218.32)"/><path class="cls-28" d="M472.69,345.91l.09,0c1,.31,1,.47,1,1v9.94c0,1.43-.6,2.16-1.77,2.16h-6a1.82,1.82,0,0,1-1.3-.36c2.05-1.11,3.94-2.41,4.19-4.3h0a3.08,3.08,0,0,0,0-.4c0-2.46-1.9-4-4.84-4a10.67,10.67,0,0,0-5.18,1.71,1.76,1.76,0,0,0-.23.16l-.07.05,0,0,0,0c.06.06.22.28.38.5l.09.13.09.12a18.51,18.51,0,0,1,1.45,2.11,16,16,0,0,0,2.28,3.85,6.19,6.19,0,0,1-2.17.46h-6.59a21.67,21.67,0,0,0,.25-3.62v-5.69l-3.05.57-.09,0,.09,0c1,.32,1,.48,1,1v5.78a7.68,7.68,0,0,1-1.39,4.65,6.68,6.68,0,0,1-3.72,2.11l-.13,0h.13c.75.06,1.3.09,1.64.09,2.77,0,4.44-1.34,5.09-4.09h7.31a4.48,4.48,0,0,0,2.42-.58h0a4,4,0,0,0,2.58.57h6.12c2.06,0,3.34-1.14,3.34-3V345.32l-3,.57Zm-6,7.94c0,2.17-1.1,3-2.66,4a15.69,15.69,0,0,1-1.74-2.94,12.83,12.83,0,0,0-1.81-3,7.71,7.71,0,0,1,3.67-1.05,2.33,2.33,0,0,1,1.89.83A3.35,3.35,0,0,1,466.66,353.86Z" transform="translate(-67.28 -218.32)"/><path class="cls-28" d="M477.75,345.91l.08,0c1,.32,1,.49,1,1v13h2V345.32l-3,.57Z" transform="translate(-67.28 -218.32)"/><path class="cls-28" d="M490.42,347.8a1.18,1.18,0,1,0,0-2.37,1.18,1.18,0,0,0,0,2.37Z" transform="translate(-67.28 -218.32)"/><path class="cls-28" d="M493.69,347.8a1.18,1.18,0,1,0-1.18-1.18A1.16,1.16,0,0,0,493.69,347.8Z" transform="translate(-67.28 -218.32)"/><path class="cls-28" d="M550.68,345.92c1,.32,1,.47,1,1v10c0,1.79-.92,2.16-1.68,2.16h-1.75c-1.07,0-1.83-1-2.18-2a4.61,4.61,0,0,0,.07-.82,5.6,5.6,0,0,0-1.09-3.23,3.88,3.88,0,0,0-3.17-1.66c-3.39,0-3.94,2.15-4.48,4.23a7.41,7.41,0,0,1-1.33,3.15,1.86,1.86,0,0,1-.8.33h-1.53c-1.07,0-1.83-1-2.18-2a4.61,4.61,0,0,0,.07-.82,5.6,5.6,0,0,0-1.09-3.23,3.88,3.88,0,0,0-3.17-1.66c-3.39,0-3.94,2.15-4.48,4.23a7.41,7.41,0,0,1-1.33,3.15,1.86,1.86,0,0,1-.8.33h-1.44c-1.56,0-2.55-2.06-2.55-3.48V345.27l-3,.57-.08,0,.08,0c.92.32,1,.41,1,.89v10.15c0,1.39-.57,2.09-1.68,2.09h-4.83v-3.89a4.31,4.31,0,0,0-1.41-3.05,5.88,5.88,0,0,0-3.26-1.6c2.17-.66,5.42-2.4,5.53-3.58h0l-1.53-2.08,0,0v.06c-.08,1.06-1,2.39-2.53,3.64a7.49,7.49,0,0,1-3.48,1.82H501l-.53.81,0,0h2.13a3.16,3.16,0,0,1,2.72,1.41,4.88,4.88,0,0,1,.79,2.67V359h-8.74c-.76-.06-1.16-.69-1.16-1.8v-5.89a7.47,7.47,0,0,1,.16-1.66v0h-1.18a.43.43,0,0,0-.14.26.31.31,0,0,1,0,.09,2.45,2.45,0,0,1-.23.55l-.38-.24h0a4.7,4.7,0,0,0-2.69-.91c-2.93,0-4.69,2.65-4.69,5.21,0,2.92,1.89,5.3,4.21,5.3a3.49,3.49,0,0,0,3.28-2.27c.05,2.05,1.43,2.25,2.84,2.27h16.16c1.75,0,2.89-.59,3.37-1.75a3.5,3.5,0,0,0,2.86,1.75h1a3,3,0,0,0,2.39-.94,4.33,4.33,0,0,0,3.71,1.92,4.52,4.52,0,0,0,4.28-2.48,3.58,3.58,0,0,0,3.13,1.5h1a3,3,0,0,0,2.39-.94,4.32,4.32,0,0,0,3.71,1.92,4.52,4.52,0,0,0,4.28-2.48,3.58,3.58,0,0,0,3.13,1.5h1.66c2.06,0,3.34-1.14,3.34-3V345.3l-3.14.59ZM544,356.31c0,2-1.21,3.73-2.64,3.73s-2.55-1.32-3-1.88a.39.39,0,0,0-.1-.13,10.34,10.34,0,0,0,.79-2.25l0-.16,0-.14c.43-1.67.87-3.39,2.34-3.39h.09C543.27,352.15,544,354.26,544,356.31Zm-14.52,0c0,2-1.21,3.73-2.64,3.73s-2.55-1.32-3-1.88a.42.42,0,0,0-.1-.13,10.34,10.34,0,0,0,.79-2.25l0-.16,0-.14c.43-1.67.87-3.39,2.34-3.39h.09C528.75,352.15,529.51,354.26,529.51,356.31ZM503,351.13h0Zm1.5.59-.06,0Zm-.67-.38-.07,0Zm1.22.9,0,0Zm-10.9,2.07a10,10,0,0,1-.25,2.75,2.66,2.66,0,0,1-2.43,2c-.89,0-2.39-.91-2.39-4.34a7.12,7.12,0,0,1,.63-3.13,2.17,2.17,0,0,1,1.94-1.37C493.9,350.24,494.19,352.3,494.19,354.31Z" transform="translate(-67.28 -218.32)"/><path class="cls-28" d="M555.76,345.89l-.09,0,.08,0c1,.32,1,.49,1,1v13h2V345.32Z" transform="translate(-67.28 -218.32)"/><path class="cls-28" d="M98.66,345.44l0,0H97.2l-5.92,6.5v-6.51l-4.09.5h0v.41l.39,0a3.47,3.47,0,0,1,1.42.35c.24.16.36.56.36,1.19v12.18h1.94v-7.41h0l5.88,7.4h2.35l-6.63-8.31Z" transform="translate(-67.28 -218.32)"/><path class="cls-28" d="M102.4,345.16a1.22,1.22,0,0,0-.9.37,1.23,1.23,0,0,0,0,1.75,1.27,1.27,0,0,0,1.77,0,1.25,1.25,0,0,0-.88-2.13Z" transform="translate(-67.28 -218.32)"/><path class="cls-28" d="M100,350.2v.42h.09l.55.1a1.54,1.54,0,0,1,.47.19,1.09,1.09,0,0,1,.37.4,1.47,1.47,0,0,1,.15.72v8h1.72v-10.4l-3.33.53Z" transform="translate(-67.28 -218.32)"/><path class="cls-28" d="M112.38,349.68A3.13,3.13,0,0,0,111,350a3.9,3.9,0,0,0-1.08.78,5,5,0,0,0-.74,1,6,6,0,0,0-.43.86v-2.9l-3.35.53h0v.42h.09l.55.09a1.33,1.33,0,0,1,.48.19,1.14,1.14,0,0,1,.38.41,1.48,1.48,0,0,1,.15.72v8h1.72v-5.2a3.68,3.68,0,0,1,.26-1.24,6.46,6.46,0,0,1,.69-1.35,4.44,4.44,0,0,1,1-1.07,1.82,1.82,0,0,1,1.1-.42,1.77,1.77,0,0,1,.85.17,1,1,0,0,1,.45.48,2.09,2.09,0,0,1,.17.66c0,.24,0,.55,0,.93v7H115v-7.76a3,3,0,0,0-.56-2A2.58,2.58,0,0,0,112.38,349.68Z" transform="translate(-67.28 -218.32)"/><path class="cls-28" d="M124.44,351.31h0a3.71,3.71,0,0,0-1-1.11,2.66,2.66,0,0,0-1.7-.52,4.19,4.19,0,0,0-1.88.4,3.33,3.33,0,0,0-1.28,1.12,5,5,0,0,0-.72,1.67,8.94,8.94,0,0,0-.23,2.08,6.13,6.13,0,0,0,1,3.7,3.51,3.51,0,0,0,3,1.43,2.76,2.76,0,0,0,1.7-.47,4.13,4.13,0,0,0,1-1.14h0v1.58c0,.48,0,.91,0,1.27a3.76,3.76,0,0,1-.26,1.07,2,2,0,0,1-.68.88,2.08,2.08,0,0,1-1.26.34,3.33,3.33,0,0,1-1.08-.15,1.88,1.88,0,0,1-.68-.38,1.52,1.52,0,0,1-.36-.53,3.19,3.19,0,0,1-.18-.68v0h-2v0a2.67,2.67,0,0,0,.23,1,2.26,2.26,0,0,0,.66.82,3.46,3.46,0,0,0,1.24.58,7.24,7.24,0,0,0,1.9.22,6.22,6.22,0,0,0,2.14-.32,3,3,0,0,0,1.31-.89A3.39,3.39,0,0,0,126,362a6.84,6.84,0,0,0,.19-1.67v-8.57a1.65,1.65,0,0,1,.14-.73,1,1,0,0,1,.37-.41,1.69,1.69,0,0,1,.45-.19,5,5,0,0,1,.56-.1h.11v-.42h-3.35Zm-.09,1.91a10.07,10.07,0,0,1,.09,1.31v1.07a5.11,5.11,0,0,1-.61,2.49,1.87,1.87,0,0,1-1.7,1.09,2.14,2.14,0,0,1-1.26-.35,2.47,2.47,0,0,1-.8-.94,4.54,4.54,0,0,1-.41-1.3,9.17,9.17,0,0,1-.12-1.5,11.34,11.34,0,0,1,.11-1.57,6.5,6.5,0,0,1,.37-1.44,2.72,2.72,0,0,1,.74-1.09,1.76,1.76,0,0,1,1.19-.42,2.05,2.05,0,0,1,1.28.39,2.44,2.44,0,0,1,.76,1A4.8,4.8,0,0,1,124.36,353.22Zm-.79,11.06h0Z" transform="translate(-67.28 -218.32)"/><path class="cls-28" d="M134.14,345.29v.42h0a1.8,1.8,0,0,1,1.3.38,2.19,2.19,0,0,1,.33,1.42v3.89h0a3.42,3.42,0,0,0-1.06-1.18,3,3,0,0,0-1.81-.54,3.44,3.44,0,0,0-3,1.58,5.48,5.48,0,0,0-.73,1.7,8.49,8.49,0,0,0-.24,2,6.39,6.39,0,0,0,1.07,3.83,3.51,3.51,0,0,0,3,1.48,2.77,2.77,0,0,0,1.71-.52,3.9,3.9,0,0,0,1-1.16h0v1.43h1.72V344.8l-3.35.48ZM130.86,355a10.64,10.64,0,0,1,.11-1.5,5.8,5.8,0,0,1,.39-1.43,2.92,2.92,0,0,1,.77-1.09,1.76,1.76,0,0,1,1.19-.42,1.9,1.9,0,0,1,1.18.38,2.6,2.6,0,0,1,.77,1,5,5,0,0,1,.4,1.28,7.94,7.94,0,0,1,.12,1.36v.87a7.61,7.61,0,0,1-.13,1.38,4.77,4.77,0,0,1-.43,1.3,2.68,2.68,0,0,1-.8,1,2,2,0,0,1-1.2.36,1.67,1.67,0,0,1-1.18-.44,2.91,2.91,0,0,1-.73-1.14,6.67,6.67,0,0,1-.36-1.44A10.7,10.7,0,0,1,130.86,355Z" transform="translate(-67.28 -218.32)"/><path class="cls-28" d="M144.82,349.68a4.07,4.07,0,0,0-3.41,1.43,6.29,6.29,0,0,0-1.11,3.94,5.79,5.79,0,0,0,1.2,3.82,4.75,4.75,0,0,0,6.77.05,6,6,0,0,0,1.15-3.9,5.87,5.87,0,0,0-1.22-3.91A4.2,4.2,0,0,0,144.82,349.68Zm2.58,3.83a10.93,10.93,0,0,1,.11,1.54,14,14,0,0,1-.08,1.51,5.22,5.22,0,0,1-.33,1.36,2.49,2.49,0,0,1-.81,1.08,2.27,2.27,0,0,1-1.41.42,2.14,2.14,0,0,1-1.35-.42,2.76,2.76,0,0,1-.83-1.09,5.49,5.49,0,0,1-.4-1.4,10,10,0,0,1-.11-1.46,15.14,15.14,0,0,1,.08-1.6,5.72,5.72,0,0,1,.32-1.37,2.4,2.4,0,0,1,.8-1.09,2.34,2.34,0,0,1,1.45-.42,2.14,2.14,0,0,1,1.35.42,2.67,2.67,0,0,1,.82,1.09A5.88,5.88,0,0,1,147.4,353.51Z" transform="translate(-67.28 -218.32)"/><path class="cls-28" d="M165.49,350.72a1.8,1.8,0,0,0-.78-.76,3.21,3.21,0,0,0-1.48-.29A2.69,2.69,0,0,0,162,350a3.19,3.19,0,0,0-.92.7,5,5,0,0,0-.6.81,8.84,8.84,0,0,0-.42.81h0a2.92,2.92,0,0,0-.58-1.93,2.57,2.57,0,0,0-2-.68,2.52,2.52,0,0,0-1.15.28,3.63,3.63,0,0,0-1,.7,4.56,4.56,0,0,0-.68.87,4.35,4.35,0,0,0-.37.76v-2.61l-3.36.53h0v.42H151l.55.09a1.33,1.33,0,0,1,.48.19,1.17,1.17,0,0,1,.38.41,1.49,1.49,0,0,1,.15.72v8h1.72v-5.2a4.81,4.81,0,0,1,.22-1.38,5.73,5.73,0,0,1,.6-1.33,3.71,3.71,0,0,1,.86-1,1.64,1.64,0,0,1,1.78-.2,1,1,0,0,1,.41.48,2.26,2.26,0,0,1,.16.66c0,.24,0,.55,0,.93v7h1.72v-5.29a4.57,4.57,0,0,1,.24-1.45,5.21,5.21,0,0,1,.64-1.3,3.7,3.7,0,0,1,.86-.92,1.51,1.51,0,0,1,.87-.33c.65,0,1.06.2,1.22.6a6.57,6.57,0,0,1,.24,2.11v6.57h1.72v-6.92c0-.57,0-1-.05-1.42A2.89,2.89,0,0,0,165.49,350.72Z" transform="translate(-67.28 -218.32)"/><path class="cls-28" d="M179.47,349.68a4.08,4.08,0,0,0-3.41,1.43,6.29,6.29,0,0,0-1.11,3.94,5.8,5.8,0,0,0,1.2,3.82,4.75,4.75,0,0,0,6.77.05,6,6,0,0,0,1.15-3.9,5.87,5.87,0,0,0-1.22-3.91A4.2,4.2,0,0,0,179.47,349.68Zm-2.63,5.37a15,15,0,0,1,.08-1.6,5.68,5.68,0,0,1,.32-1.37A2.4,2.4,0,0,1,178,351a2.34,2.34,0,0,1,1.45-.42,2.14,2.14,0,0,1,1.35.42,2.68,2.68,0,0,1,.82,1.09,5.89,5.89,0,0,1,.39,1.43,10.93,10.93,0,0,1,.11,1.54,14.19,14.19,0,0,1-.08,1.51,5.23,5.23,0,0,1-.33,1.36,2.49,2.49,0,0,1-.81,1.08,2.27,2.27,0,0,1-1.41.42,2.14,2.14,0,0,1-1.35-.42,2.76,2.76,0,0,1-.83-1.09,5.54,5.54,0,0,1-.4-1.4A10,10,0,0,1,176.84,355.05Z" transform="translate(-67.28 -218.32)"/><path class="cls-28" d="M189.43,347.48a3.89,3.89,0,0,1,.14-.89,1.33,1.33,0,0,1,.38-.65,1,1,0,0,1,.71-.23l.31,0h0a1.21,1.21,0,0,1,.42.15l.12.08a.76.76,0,0,1,.12.11,2,2,0,0,1,.33,1.08v0h1.88v0a2.36,2.36,0,0,0-.2-.82,2.45,2.45,0,0,0-.53-.76,2.48,2.48,0,0,0-.94-.56,4.27,4.27,0,0,0-1.4-.21,3.52,3.52,0,0,0-1.63.34,2.3,2.3,0,0,0-1,.91,3.78,3.78,0,0,0-.43,1.22,8.73,8.73,0,0,0-.11,1.42v1.21H186v.79h1.72v9.37h1.72v-9.37h2.94v-.79h-2.94V348.7C189.41,348.22,189.41,347.8,189.43,347.48Zm-1.67.6c0-.07,0-.14,0-.2S187.76,348,187.76,348.08Z" transform="translate(-67.28 -218.32)"/><path class="cls-28" d="M207.38,353.23a6.9,6.9,0,0,0-1.18-.88c-.4-.24-.94-.54-1.61-.88-.49-.24-.92-.46-1.28-.66l-.45-.28-.1-.07c-.14-.1-.27-.2-.4-.3a2.85,2.85,0,0,1-.67-.81,2.08,2.08,0,0,1-.25-1,1.92,1.92,0,0,1,.72-1.57,2.92,2.92,0,0,1,1.89-.58,6.58,6.58,0,0,1,1.9.27,14.55,14.55,0,0,1,1.68.62l0,0v-1.58h0c-.46-.1-1-.18-1.5-.25a14.12,14.12,0,0,0-1.72-.1,5.69,5.69,0,0,0-3.48,1,3.24,3.24,0,0,0-1.28,2.74,3.5,3.5,0,0,0,.32,1.53,3.89,3.89,0,0,0,.84,1.15,6.63,6.63,0,0,0,1.1.84c.38.23.89.51,1.53.83l1.29.71a6.33,6.33,0,0,1,1,.67,2.8,2.8,0,0,1,.69.86,2.41,2.41,0,0,1,.25,1.11,2.59,2.59,0,0,1-.79,2,3.3,3.3,0,0,1-2.23.69,7.19,7.19,0,0,1-2-.29,11.13,11.13,0,0,1-1.77-.66l0,0v1.56h0c.4.09.92.18,1.54.28a12.37,12.37,0,0,0,1.94.15,8.37,8.37,0,0,0,2-.24,5.18,5.18,0,0,0,1.69-.75,3.6,3.6,0,0,0,1.16-1.32,4.14,4.14,0,0,0,.42-1.9,3.77,3.77,0,0,0-.34-1.63A4,4,0,0,0,207.38,353.23Zm-2.09-8h0Z" transform="translate(-67.28 -218.32)"/><path class="cls-28" d="M217.05,350.68a2.43,2.43,0,0,0-1.07-.74,5,5,0,0,0-1.74-.26,5.66,5.66,0,0,0-1.76.24,3.15,3.15,0,0,0-1.17.65,2.66,2.66,0,0,0-.65.89,3.22,3.22,0,0,0-.25,1v0h2v0a4.29,4.29,0,0,1,.09-.61,2.15,2.15,0,0,1,.24-.59,1.31,1.31,0,0,1,.52-.49,2,2,0,0,1,.93-.19,1.85,1.85,0,0,1,1,.25,1.43,1.43,0,0,1,.54.67,3,3,0,0,1,.21.91c0,.32,0,.74,0,1.24v.82h0c-.59,0-1.18.06-1.73.12a8.36,8.36,0,0,0-1.75.41,3.75,3.75,0,0,0-1.54,1,2.46,2.46,0,0,0-.63,1.74,2.53,2.53,0,0,0,.72,1.87,2.59,2.59,0,0,0,1.91.72,3.22,3.22,0,0,0,1.82-.47,6.24,6.24,0,0,0,1.24-1.12v1.35h1.72v-6.83a6.72,6.72,0,0,0-.14-1.47A2.76,2.76,0,0,0,217.05,350.68ZM216,355.19v1.26a3.2,3.2,0,0,1-.14.91,3.5,3.5,0,0,1-.41.89,2.26,2.26,0,0,1-.69.69,1.69,1.69,0,0,1-.93.27,1.43,1.43,0,0,1-1.22-.54,2,2,0,0,1-.41-1.21,1.69,1.69,0,0,1,.43-1.19,2.65,2.65,0,0,1,1.07-.69,5.49,5.49,0,0,1,1.2-.29C215.25,355.23,215.63,355.2,216,355.19Z" transform="translate(-67.28 -218.32)"/><path class="cls-28" d="M226.1,350.2v.42h.07l.57.09a1.33,1.33,0,0,1,.48.19,1,1,0,0,1,.37.42,1.58,1.58,0,0,1,.14.71v3.11a4.07,4.07,0,0,1-.23,1.22,6.47,6.47,0,0,1-.63,1.36,4.1,4.1,0,0,1-.91,1.07,1.6,1.6,0,0,1-1,.41,1.45,1.45,0,0,1-1.4-.75,4.21,4.21,0,0,1-.4-2v-6.81l-3.33.53h0v.42h.09l.55.1a1.51,1.51,0,0,1,.47.19,1.11,1.11,0,0,1,.37.4,1.49,1.49,0,0,1,.15.72v4.17a9.92,9.92,0,0,0,.13,1.71,3.67,3.67,0,0,0,.46,1.27,2.22,2.22,0,0,0,.92.84,3.33,3.33,0,0,0,1.49.3,2.76,2.76,0,0,0,1.26-.28,3.73,3.73,0,0,0,1-.71,4.52,4.52,0,0,0,.67-.85,4.61,4.61,0,0,0,.38-.78v2.39h1.72v-10.4l-3.33.53Z" transform="translate(-67.28 -218.32)"/><path class="cls-28" d="M237.27,345.29v.42h0a1.8,1.8,0,0,1,1.3.38,2.19,2.19,0,0,1,.33,1.42v3.89h0a3.43,3.43,0,0,0-1.06-1.18,3,3,0,0,0-1.81-.54,3.56,3.56,0,0,0-1.74.42,3.52,3.52,0,0,0-1.25,1.16,5.48,5.48,0,0,0-.73,1.7,8.47,8.47,0,0,0-.24,2,6.39,6.39,0,0,0,1.07,3.83,3.51,3.51,0,0,0,3,1.48,2.77,2.77,0,0,0,1.71-.52,3.91,3.91,0,0,0,1-1.16h0v1.43h1.72V344.8l-3.35.48Zm1.65,9.26v.87a7.56,7.56,0,0,1-.13,1.38,4.74,4.74,0,0,1-.43,1.3,2.68,2.68,0,0,1-.8,1,2,2,0,0,1-1.2.36,1.67,1.67,0,0,1-1.18-.44,2.91,2.91,0,0,1-.73-1.14,6.69,6.69,0,0,1-.36-1.44,10.2,10.2,0,0,1,0-2.88,5.79,5.79,0,0,1,.39-1.43,2.92,2.92,0,0,1,.77-1.09,1.76,1.76,0,0,1,1.19-.42,1.91,1.91,0,0,1,1.18.38,2.6,2.6,0,0,1,.77,1,5.06,5.06,0,0,1,.4,1.28A8,8,0,0,1,238.92,354.55Z" transform="translate(-67.28 -218.32)"/><path class="cls-28" d="M242.6,350.2v.42h.09l.55.1a1.53,1.53,0,0,1,.47.19,1.08,1.08,0,0,1,.37.4,1.48,1.48,0,0,1,.15.72v8h1.72v-10.4l-3.33.53Z" transform="translate(-67.28 -218.32)"/><path class="cls-28" d="M245,345.16a1.22,1.22,0,0,0-.9.37,1.23,1.23,0,0,0,0,1.75,1.27,1.27,0,0,0,1.77,0,1.25,1.25,0,0,0-.88-2.13Z" transform="translate(-67.28 -218.32)"/><path class="cls-28" d="M260.94,345.4h-3.78v.41h0a5.78,5.78,0,0,1,1.29.42.62.62,0,0,1,.37.58,1.61,1.61,0,0,1-.08.46c0,.16-.12.38-.23.66l0,0L254,360v0h1.42l1.72-4.85h5.44l1.82,4.83v0h2.16l-5.62-14.66Zm1.38,8.93h-4.86l2.44-6.53Z" transform="translate(-67.28 -218.32)"/><path class="cls-28" d="M273,349.68a2.78,2.78,0,0,0-1.25.26,2.52,2.52,0,0,0-.85.66,3.35,3.35,0,0,0-.48.78c-.11.25-.22.55-.33.89v-2.59l-3.36.53h0v.42h.07l.58.1a1.52,1.52,0,0,1,.48.19,1.06,1.06,0,0,1,.37.42,1.68,1.68,0,0,1,.15.76v8h1.72v-5.24a7.88,7.88,0,0,1,.09-1.16,3.81,3.81,0,0,1,.35-1.1,2,2,0,0,1,2-1.17,2.18,2.18,0,0,1,.56.11l.18.05v-1.86h0A.7.7,0,0,0,273,349.68Z" transform="translate(-67.28 -218.32)"/><path class="cls-28" d="M280.7,350.68a2.43,2.43,0,0,0-1.06-.74,5,5,0,0,0-1.74-.26,5.66,5.66,0,0,0-1.76.24,3.15,3.15,0,0,0-1.17.65,2.67,2.67,0,0,0-.65.89,3.22,3.22,0,0,0-.25,1v0h2v0a4.32,4.32,0,0,1,.09-.62,2.14,2.14,0,0,1,.24-.59,1.3,1.3,0,0,1,.52-.49,2,2,0,0,1,.93-.19,1.85,1.85,0,0,1,1,.25,1.43,1.43,0,0,1,.54.67,3,3,0,0,1,.21.91c0,.32,0,.74,0,1.24v.82h0c-.59,0-1.17.06-1.73.12a8.36,8.36,0,0,0-1.75.41,3.75,3.75,0,0,0-1.54,1,2.47,2.47,0,0,0-.63,1.74,2.53,2.53,0,0,0,.72,1.87,2.59,2.59,0,0,0,1.91.72,3.22,3.22,0,0,0,1.82-.47,6.23,6.23,0,0,0,1.24-1.12v1.35h1.72v-6.83a6.74,6.74,0,0,0-.14-1.47A2.75,2.75,0,0,0,280.7,350.68Zm-1.07,4.51v1.26a3.22,3.22,0,0,1-.14.91,3.5,3.5,0,0,1-.41.89,2.26,2.26,0,0,1-.69.69,1.69,1.69,0,0,1-.93.27,1.43,1.43,0,0,1-1.22-.54,2,2,0,0,1-.41-1.21,1.69,1.69,0,0,1,.43-1.19,2.66,2.66,0,0,1,1.07-.69,5.48,5.48,0,0,1,1.2-.29C278.91,355.23,279.28,355.2,279.64,355.19Z" transform="translate(-67.28 -218.32)"/><path class="cls-28" d="M292.34,351.28a3.54,3.54,0,0,0-1.24-1.17,3.62,3.62,0,0,0-1.81-.43,3,3,0,0,0-1.82.53,3.57,3.57,0,0,0-1,1.19v-6.59l-3.42.48h0v.42h0a1.93,1.93,0,0,1,1.34.38,2.09,2.09,0,0,1,.35,1.42v12.57h.58l1.12-.91a5.22,5.22,0,0,0,1.11.81,3.2,3.2,0,0,0,1.54.33,3.73,3.73,0,0,0,3.17-1.4,6.39,6.39,0,0,0,1-3.89,8.83,8.83,0,0,0-.23-2A5.49,5.49,0,0,0,292.34,351.28Zm-1,5.2a6.48,6.48,0,0,1-.32,1.4,2.69,2.69,0,0,1-.72,1.11,1.77,1.77,0,0,1-1.23.44,2.53,2.53,0,0,1-1.44-.36,2.07,2.07,0,0,1-.77-.95,4.37,4.37,0,0,1-.3-1.18,12.43,12.43,0,0,1-.06-1.36v-1.63a4.07,4.07,0,0,1,.15-1,4.74,4.74,0,0,1,.45-1.11,2.74,2.74,0,0,1,.78-.88,1.75,1.75,0,0,1,1-.34,1.87,1.87,0,0,1,1.23.42,2.79,2.79,0,0,1,.79,1.1,6,6,0,0,1,.39,1.44,10.61,10.61,0,0,1,.11,1.5A12.14,12.14,0,0,1,291.29,356.47Z" transform="translate(-67.28 -218.32)"/><path class="cls-28" d="M294.57,350.2v.42h.09l.55.1a1.55,1.55,0,0,1,.47.19,1.09,1.09,0,0,1,.37.4,1.47,1.47,0,0,1,.15.72v8h1.72v-10.4l-3.33.53Z" transform="translate(-67.28 -218.32)"/><path class="cls-28" d="M297,345.16a1.22,1.22,0,0,0-.9.37,1.23,1.23,0,0,0,0,1.75,1.27,1.27,0,0,0,1.77,0,1.25,1.25,0,0,0-.88-2.13Z" transform="translate(-67.28 -218.32)"/><path class="cls-28" d="M307.81,351.77a2.75,2.75,0,0,0-.52-1.1,2.43,2.43,0,0,0-1.07-.74,5,5,0,0,0-1.74-.26,5.66,5.66,0,0,0-1.76.24,3.16,3.16,0,0,0-1.17.65,2.66,2.66,0,0,0-.65.89,3.22,3.22,0,0,0-.25,1v0h2v0a4.32,4.32,0,0,1,.09-.62,2.14,2.14,0,0,1,.24-.59,1.3,1.3,0,0,1,.52-.49,2,2,0,0,1,.93-.19,1.85,1.85,0,0,1,1,.25,1.43,1.43,0,0,1,.54.67,3,3,0,0,1,.21.91c0,.32,0,.74,0,1.24v.82h0c-.59,0-1.17.06-1.73.12a8.36,8.36,0,0,0-1.75.41,3.75,3.75,0,0,0-1.54,1,2.46,2.46,0,0,0-.63,1.74,2.53,2.53,0,0,0,.72,1.87,2.59,2.59,0,0,0,1.91.72,3.22,3.22,0,0,0,1.82-.47,6.23,6.23,0,0,0,1.24-1.12v1.35h1.72v-6.83A6.71,6.71,0,0,0,307.81,351.77Zm-1.58,3.41v1.26a3.22,3.22,0,0,1-.14.91,3.5,3.5,0,0,1-.41.89,2.26,2.26,0,0,1-.69.69,1.69,1.69,0,0,1-.93.27,1.43,1.43,0,0,1-1.22-.54,2,2,0,0,1-.41-1.21,1.69,1.69,0,0,1,.43-1.19,2.65,2.65,0,0,1,1.07-.69,5.48,5.48,0,0,1,1.2-.29C305.49,355.23,305.86,355.2,306.22,355.19Z" transform="translate(-67.28 -218.32)"/><path class="cls-29" d="M69.87,298c0-2.44-.37-2.33-2.59-2.78v-.58h5.95l5.19,14.46h.05l5.08-14.46h3.54v17.63H84.47V296.68h-.05l-5.5,15.59H77.05l-5.48-15.43h-.05v15.43H69.87Z" transform="translate(-67.28 -218.32)"/><path class="cls-29" d="M91.31,303.49c0-1.83-.42-2.28-2-2.33v-.52l4.64-.84v12.47H91.31ZM91,296.07a1.64,1.64,0,0,1,1.65-1.62,1.66,1.66,0,0,1,1.68,1.62,1.69,1.69,0,0,1-1.7,1.65A1.64,1.64,0,0,1,91,296.07Z" transform="translate(-67.28 -218.32)"/><path class="cls-29" d="M97.93,303.49c0-1.83-.45-2.28-2.1-2.33v-.52l4.72-.84v3.35h.05c.39-.92,1.78-3.35,4.38-3.35,2.38,0,3.17,1.68,3.17,3.69v8.78h-2.62v-6.79c0-2.07,0-3.9-1.76-3.9s-3.22,2.44-3.22,4.3v6.39H97.93Z" transform="translate(-67.28 -218.32)"/><path class="cls-29" d="M112.11,303.49c0-1.83-.42-2.28-2-2.33v-.52l4.64-.84v12.47h-2.62Zm-.29-7.41a1.64,1.64,0,0,1,1.65-1.62,1.66,1.66,0,0,1,1.68,1.62,1.69,1.69,0,0,1-1.7,1.65A1.64,1.64,0,0,1,111.82,296.07Z" transform="translate(-67.28 -218.32)"/><path class="cls-29" d="M124.61,302.2a5.74,5.74,0,0,0-3.12-1.26c-.84,0-1.83.31-1.83,1.44,0,2.49,5.74,2.54,5.74,6.55,0,2.57-2.12,3.62-4.72,3.62a12.45,12.45,0,0,1-3.35-.47v-2a6.25,6.25,0,0,0,3.46,1.36c1.65,0,2.25-.84,2.25-1.76,0-2.57-5.74-2.72-5.74-6.34,0-1.89,1.28-3.51,4.38-3.51a11.82,11.82,0,0,1,2.93.45Z" transform="translate(-67.28 -218.32)"/><path class="cls-29" d="M134.41,312.34a10,10,0,0,1-1.76.21c-2.52,0-4-.39-4-3.38v-8h-2v-1h2V298l2.62-2.33v4.4h3.43v1h-3.43v7.62c0,1.83.13,2.65,2.15,2.65a4,4,0,0,0,1-.1Z" transform="translate(-67.28 -218.32)"/><path class="cls-29" d="M136.87,303.49c0-1.83-.42-2.28-2.07-2.33v-.52l4.69-.84v3.46h.05c.37-1.21,1.18-3.46,3.27-3.46a8.29,8.29,0,0,1,1.41.13v2.49a4.71,4.71,0,0,0-1.34-.31c-2.65,0-3.41,2.07-3.41,3.9v6.26h-2.62Z" transform="translate(-67.28 -218.32)"/><path class="cls-29" d="M151.75,313.26c-.81,2.1-1.73,4.35-4.59,4.35a3.43,3.43,0,0,1-3.64-3.35h3c0,.79.13,1.94,1.39,1.94s1.73-1.34,2.1-2.28l.34-.89L146.15,303c-.63-1.55-1-2.28-2.8-2.36v-.52h4.45l3.88,9.64,3.77-9.64h1.49Z" transform="translate(-67.28 -218.32)"/><path class="cls-29" d="M165.82,306.19c0-4.38,1.83-6.39,5.66-6.39s5.66,2.62,5.66,6.39c0,4.27-1.78,6.37-5.66,6.37C167.26,312.55,165.82,309.85,165.82,306.19Zm5.66,5.48c2.57,0,2.78-2.86,2.78-5.48,0-2.41-.24-5.5-2.78-5.5s-2.78,3.2-2.78,5.5S168.89,311.66,171.48,311.66Z" transform="translate(-67.28 -218.32)"/><path class="cls-29" d="M180.49,301.13h-2.12v-1h2.12v-1.76c0-2.1.92-4.4,4.06-4.4,3.35,0,4.51,1.18,4.79,3.09h-2.93c0-.94-.37-2.2-1.68-2.2-1.52,0-1.62,1.68-1.62,2.91v2.36h3.48v1h-3.48v11.14h-2.62Z" transform="translate(-67.28 -218.32)"/><path class="cls-29" d="M196.48,298.2c0-2.59-.08-2.59-2.49-3v-.58h12.55l.08,3.88h-.73c0-2.1-1.1-2.65-2.83-2.65h-2c-1.31,0-1.65.1-1.65,1.36v5.21h3.17c1.81,0,2-1.15,2.15-2h.73v5.5h-.73c0-1.41-.58-2.25-2.15-2.25h-3.17v5.84c0,1.47.34,1.52,1.65,1.52h2.91c1.49,0,2.2-.52,2.36-2.57H207l-.08,3.8H196.48Z" transform="translate(-67.28 -218.32)"/><path class="cls-29" d="M210.1,303.49c0-1.83-.45-2.28-2.1-2.33v-.52l4.72-.84v3.35h.05c.39-.92,1.78-3.35,4.38-3.35,2.38,0,3.17,1.68,3.17,3.69v8.78H217.7v-6.79c0-2.07,0-3.9-1.76-3.9s-3.22,2.44-3.22,4.3v6.39H210.1Z" transform="translate(-67.28 -218.32)"/><path class="cls-29" d="M224,303c-.65-1.76-.94-2.2-2.72-2.36v-.52h4.38l3.67,9.22,3.56-9.22h1.49l-4.69,12.18h-1.91Z" transform="translate(-67.28 -218.32)"/><path class="cls-29" d="M236.85,303.49c0-1.83-.42-2.28-2-2.33v-.52l4.64-.84v12.47h-2.62Zm-.29-7.41a1.64,1.64,0,0,1,1.65-1.62,1.66,1.66,0,0,1,1.68,1.62,1.69,1.69,0,0,1-1.7,1.65A1.64,1.64,0,0,1,236.56,296.07Z" transform="translate(-67.28 -218.32)"/><path class="cls-29" d="M243.32,303.49c0-1.83-.42-2.28-2.07-2.33v-.52l4.69-.84v3.46H246c.37-1.21,1.18-3.46,3.27-3.46a8.29,8.29,0,0,1,1.41.13v2.49a4.71,4.71,0,0,0-1.34-.31c-2.65,0-3.41,2.07-3.41,3.9v6.26h-2.62Z" transform="translate(-67.28 -218.32)"/><path class="cls-29" d="M251,306.19c0-4.38,1.83-6.39,5.66-6.39s5.66,2.62,5.66,6.39c0,4.27-1.78,6.37-5.66,6.37C252.42,312.55,251,309.85,251,306.19Zm5.66,5.48c2.57,0,2.78-2.86,2.78-5.48,0-2.41-.24-5.5-2.78-5.5s-2.78,3.2-2.78,5.5S254,311.66,256.64,311.66Z" transform="translate(-67.28 -218.32)"/><path class="cls-29" d="M265.26,303.49c0-1.83-.45-2.28-2.1-2.33v-.52l4.72-.84v3.35h.05c.39-.92,1.78-3.35,4.38-3.35,2.38,0,3.17,1.68,3.17,3.69v8.78h-2.62v-6.79c0-2.07,0-3.9-1.76-3.9s-3.22,2.44-3.22,4.3v6.39h-2.62Z" transform="translate(-67.28 -218.32)"/><path class="cls-29" d="M279.17,303.49c0-1.83-.42-2.28-2-2.33v-.52l4.69-.84v3.12h.05c.45-.92,1.65-3.12,4-3.12a3.06,3.06,0,0,1,3.22,2.93h.05c.55-1,1.55-2.93,3.9-2.93,3.33,0,3.33,3,3.33,4.9v7.57h-2.62v-7.15c0-1.62,0-3.54-1.76-3.54-2,0-2.93,2.75-2.93,4.64v6.05h-2.62v-6.79c0-2.07,0-3.9-1.76-3.9s-2.93,2.44-2.93,4.3v6.39h-2.62Z" transform="translate(-67.28 -218.32)"/><path class="cls-29" d="M308.93,311.85a10.46,10.46,0,0,1-3.69.71c-4,0-6.42-2.44-6.42-6.81,0-4.14,2-5.95,5.5-5.95,4.48,0,4.85,3.25,4.85,5H301.7c0,2.62,1.07,6.34,4.77,6.34a6.85,6.85,0,0,0,2.46-.45Zm-2.38-8.1c0-.6-.05-3.07-2.33-3.07-2,0-2.52,2.07-2.52,3.07Z" transform="translate(-67.28 -218.32)"/><path class="cls-29" d="M311.76,303.49c0-1.83-.45-2.28-2.1-2.33v-.52l4.72-.84v3.35h.05c.39-.92,1.78-3.35,4.38-3.35,2.38,0,3.17,1.68,3.17,3.69v8.78h-2.62v-6.79c0-2.07,0-3.9-1.76-3.9s-3.22,2.44-3.22,4.3v6.39h-2.62Z" transform="translate(-67.28 -218.32)"/><path class="cls-29" d="M331.88,312.34a10,10,0,0,1-1.76.21c-2.52,0-4-.39-4-3.38v-8h-2v-1h2V298l2.62-2.33v4.4h3.43v1h-3.43v7.62c0,1.83.13,2.65,2.15,2.65a4,4,0,0,0,1-.1Z" transform="translate(-67.28 -218.32)"/><path class="cls-29" d="M343.71,298c-.55-2.38-.79-2.36-3-2.78v-.58h4.74L349,308.91H349l4.14-14.28H355l4.72,14.28h.05l2.88-14.28h1.7l-3.69,17.63h-2.49l-4.56-14h-.05l-4,14H347Z" transform="translate(-67.28 -218.32)"/><path class="cls-29" d="M372.19,310.72a4.1,4.1,0,0,1-3.38,1.83,3.3,3.3,0,0,1-3.51-3c0-3.69,5.21-4,6.89-4v-1.34c0-1.65,0-3.48-1.65-3.48s-1.83,1.52-1.83,2.67h-3.12c.29-1.73,1.15-3.56,4.93-3.56s4.3,1.91,4.3,4.51v8h-2.62Zm0-4.27c-.94,0-4,.16-4,2.65,0,1.21.6,2,1.57,2,1.52,0,2.44-1.39,2.44-3.17Z" transform="translate(-67.28 -218.32)"/><path class="cls-29" d="M384.53,312.34a10,10,0,0,1-1.76.21c-2.52,0-4-.39-4-3.38v-8h-2v-1h2V298l2.62-2.33v4.4h3.43v1h-3.43v7.62c0,1.83.13,2.65,2.15,2.65a4,4,0,0,0,1-.1Z" transform="translate(-67.28 -218.32)"/><path class="cls-29" d="M395.93,311.85a10.46,10.46,0,0,1-3.69.71c-4,0-6.42-2.44-6.42-6.81,0-4.14,2-5.95,5.5-5.95,4.48,0,4.85,3.25,4.85,5H388.7c0,2.62,1.07,6.34,4.77,6.34a6.85,6.85,0,0,0,2.46-.45Zm-2.38-8.1c0-.6-.05-3.07-2.33-3.07-2,0-2.52,2.07-2.52,3.07Z" transform="translate(-67.28 -218.32)"/><path class="cls-29" d="M398.6,303.49c0-1.83-.42-2.28-2.07-2.33v-.52l4.69-.84v3.46h.05c.37-1.21,1.18-3.46,3.27-3.46a8.29,8.29,0,0,1,1.41.13v2.49a4.71,4.71,0,0,0-1.34-.31c-2.65,0-3.41,2.07-3.41,3.9v6.26H398.6Z" transform="translate(-67.28 -218.32)"/><path class="cls-29" d="M445.5,298a10.78,10.78,0,0,0,.45-1.55c0-1-1-1.07-2-1.23v-.58h4.93l6.39,17.63h-2.72l-2-5.45h-6.68l-2,5.45h-1.62Zm-1.18,7.6h5.79l-3-7.65Z" transform="translate(-67.28 -218.32)"/><path class="cls-29" d="M466.74,312.66c0,2.7-.5,5.19-5.08,5.19-3.22,0-5.48-.73-5.48-3.67h3c0,1.1.34,2.78,2.44,2.78,2.54,0,2.54-2,2.54-3.46v-3.07h-.05a3.35,3.35,0,0,1-3.3,1.83c-3.3,0-4.61-2.75-4.61-5.82,0-3.38,1-6.65,4.64-6.65a3.69,3.69,0,0,1,3.28,1.81h.05v-1.52h4.69v.52c-.84,0-2.07.13-2.07,1.86Zm-2.62-8.15c0-1.65-.84-3.3-2.46-3.3-2.38,0-2.62,3-2.62,4.87s.26,4.77,2.41,4.77,2.67-2.31,2.67-3.75Z" transform="translate(-67.28 -218.32)"/><path class="cls-29" d="M470.75,303.49c0-1.83-.42-2.28-2.07-2.33v-.52l4.69-.84v3.46h.05c.37-1.21,1.18-3.46,3.27-3.46a8.29,8.29,0,0,1,1.41.13v2.49a4.71,4.71,0,0,0-1.34-.31c-2.65,0-3.41,2.07-3.41,3.9v6.26h-2.62Z" transform="translate(-67.28 -218.32)"/><path class="cls-29" d="M480.24,303.49c0-1.83-.42-2.28-2-2.33v-.52l4.64-.84v12.47h-2.62Zm-.29-7.41a1.64,1.64,0,0,1,1.65-1.62,1.66,1.66,0,0,1,1.68,1.62,1.69,1.69,0,0,1-1.7,1.65A1.64,1.64,0,0,1,479.95,296.07Z" transform="translate(-67.28 -218.32)"/><path class="cls-29" d="M495.09,311.92a8.42,8.42,0,0,1-3.72.63c-3.67,0-5.84-2.59-5.84-6.55,0-3.59,1.47-6.21,5.21-6.21,2.91,0,4.82,1.47,4.82,3.59h-3.09c0-1.07-.26-2.7-1.89-2.7-1.78,0-2.17,1.94-2.17,4.45,0,3.88,1.78,6,4.17,6a9.22,9.22,0,0,0,2.52-.37Z" transform="translate(-67.28 -218.32)"/><path class="cls-29" d="M505.13,309.3h-.05c-.45,1.15-1.52,3.25-4.06,3.25-3.51,0-3.51-3.41-3.51-5.34v-3.72c0-1.83-.42-2.28-2-2.33v-.52l4.64-.84v7.89c0,2.38.89,3.09,2.15,3.09,1.7,0,2.86-2.23,2.86-4.4v-2.88c0-1.83-.45-2.28-2-2.33v-.52l4.64-.84v12.47h-2.62Z" transform="translate(-67.28 -218.32)"/><path class="cls-29" d="M511.2,297.49c0-1.86-.45-2.3-2-2.38v-.52l4.61-.65v18.34H511.2Z" transform="translate(-67.28 -218.32)"/><path class="cls-29" d="M523.91,312.34a10,10,0,0,1-1.76.21c-2.52,0-4-.39-4-3.38v-8h-2v-1h2V298l2.62-2.33v4.4h3.43v1h-3.43v7.62c0,1.83.13,2.65,2.15,2.65a4,4,0,0,0,1-.1Z" transform="translate(-67.28 -218.32)"/><path class="cls-29" d="M534.15,309.3h-.05c-.45,1.15-1.52,3.25-4.06,3.25-3.51,0-3.51-3.41-3.51-5.34v-3.72c0-1.83-.42-2.28-2-2.33v-.52l4.64-.84v7.89c0,2.38.89,3.09,2.15,3.09,1.7,0,2.86-2.23,2.86-4.4v-2.88c0-1.83-.45-2.28-2-2.33v-.52l4.64-.84v12.47h-2.62Z" transform="translate(-67.28 -218.32)"/><path class="cls-29" d="M540.42,303.49c0-1.83-.42-2.28-2.07-2.33v-.52l4.69-.84v3.46h.05c.37-1.21,1.18-3.46,3.27-3.46a8.29,8.29,0,0,1,1.41.13v2.49a4.71,4.71,0,0,0-1.34-.31c-2.65,0-3.41,2.07-3.41,3.9v6.26h-2.62Z" transform="translate(-67.28 -218.32)"/><path class="cls-29" d="M558.05,311.85a10.46,10.46,0,0,1-3.69.71c-4,0-6.42-2.44-6.42-6.81,0-4.14,2-5.95,5.5-5.95,4.48,0,4.85,3.25,4.85,5h-7.47c0,2.62,1.07,6.34,4.77,6.34a6.85,6.85,0,0,0,2.46-.45Zm-2.38-8.1c0-.6-.05-3.07-2.33-3.07-2,0-2.52,2.07-2.52,3.07Z" transform="translate(-67.28 -218.32)"/><path class="cls-29" d="M431.27,309.33s-.1,0-.36.3a5.41,5.41,0,0,1-1,.86,1.94,1.94,0,0,1-1.91-.29,6.77,6.77,0,0,1-1.34-1.21l-.33-.37a1.17,1.17,0,0,1-.37-.54l0-.12.08-.09c1.07-1.36,1.83-2.28,2.27-2.74a12,12,0,0,1,1.52-1.45A9.51,9.51,0,0,1,431,303l0-.1a1.88,1.88,0,0,0,0-.36v-.08l-.56,0h-.65l-.93.05c-.84,0-1.53.1-2.1.17a5.27,5.27,0,0,0-.57.1l0,.44a1.76,1.76,0,0,1,.68.47,1.09,1.09,0,0,1,.28.69,2.55,2.55,0,0,1-.39,1.11,7.3,7.3,0,0,1-1.29,1.68l-.18.18-.18-.18a5.48,5.48,0,0,1-.44-.53l-1.48-1.81a11.33,11.33,0,0,0-.83-.94,11.65,11.65,0,0,1-1.16-1.21l-.11-.15.11-.15a.73.73,0,0,1,.37-.25,6.21,6.21,0,0,0,1.24-.69,2.84,2.84,0,0,0,1-.94,2.9,2.9,0,0,0,.28-1.26,2.58,2.58,0,0,0-1-2,4,4,0,0,0-2.75-.89,5.29,5.29,0,0,0-1.25.08,2.51,2.51,0,0,1-.36.11,4,4,0,0,0-2.14,1.26,3,3,0,0,0-.73,2,3.11,3.11,0,0,0,.17,1,3.28,3.28,0,0,0,.42.86c.18.24.57.72,1.18,1.42l.2.23-.26.16a5.36,5.36,0,0,1-.71.33,10,10,0,0,0-1.84,1.06,4.75,4.75,0,0,0-1.48,1.63,4.19,4.19,0,0,0-.5,2,3.66,3.66,0,0,0,1.21,2.82,5.53,5.53,0,0,0,3.8,1.12,8.6,8.6,0,0,0,5.52-2.06l.17-.14.16.15a9.72,9.72,0,0,0,2.39,1.67,4.23,4.23,0,0,0,1.76.37,3.51,3.51,0,0,0,1.67-.33,3.73,3.73,0,0,0,1.39-1.25,2.46,2.46,0,0,0,.46-1.17.31.31,0,0,0-.1-.24A.36.36,0,0,0,431.27,309.33Zm-12.45-11.82a2,2,0,0,1,1.3-.46,2.3,2.3,0,0,1,1.2.3,1.33,1.33,0,0,1,.65.69,5,5,0,0,1,.26,1.32,2.71,2.71,0,0,1-.29,1.4,2.84,2.84,0,0,1-1.28,1.06l-.14.06-.12-.1a8.52,8.52,0,0,1-1.75-1.8,2.2,2.2,0,0,1-.39-1.19A1.6,1.6,0,0,1,418.82,297.51ZM423,309.7a4.12,4.12,0,0,1-2.88,1.22,3.41,3.41,0,0,1-1.65-.43,4.93,4.93,0,0,1-1.26-1,5.67,5.67,0,0,1-.93-1.5,3,3,0,0,1-.24-1.18,2.68,2.68,0,0,1,.61-1.74,4,4,0,0,1,1.6-1.14l.16-.07.12.13c.82.88,1.63,1.8,2.41,2.75l1.53,1.84a3.5,3.5,0,0,0,.28.35,2,2,0,0,1,.3.42l.09.17Z" transform="translate(-67.28 -218.32)"/></g></g></svg>